<svg width="64" height="64" viewBox="0 0 64 64" fill="none" xmlns="http://www.w3.org/2000/svg">
<g clip-path="url(#clip0_179888_172633)">
<path d="M61.4857 22.9801C59.8794 19.178 57.5507 15.7237 54.6286 12.8087C51.7135 9.8866 48.2592 7.55786 44.4571 5.95154C40.5071 4.28011 36.3214 3.43726 32 3.43726C27.6786 3.43726 23.4929 4.28011 19.5429 5.95154C15.7408 7.55786 12.2865 9.8866 9.37143 12.8087C6.44935 15.7237 4.1206 19.178 2.51429 22.9801C0.842857 26.9301 0 31.1158 0 35.4373C0 44.9158 4.16429 53.8444 11.4214 59.9444L11.5429 60.0444C11.9571 60.3873 12.4786 60.5801 13.0143 60.5801H50.9929C51.5286 60.5801 52.05 60.3873 52.4643 60.0444L52.5857 59.9444C59.8357 53.8444 64 44.9158 64 35.4373C64 31.1158 63.15 26.9301 61.4857 22.9801ZM49.8143 55.1516H14.1857C11.4257 52.6629 9.21977 49.6218 7.71112 46.2255C6.20247 42.8292 5.4248 39.1536 5.42857 35.4373C5.42857 28.3373 8.19286 21.6658 13.2143 16.6515C18.2357 11.6301 24.9071 8.86583 32 8.86583C39.1 8.86583 45.7714 11.6301 50.7857 16.6515C55.8071 21.673 58.5714 28.3444 58.5714 35.4373C58.5714 42.9801 55.3929 50.1158 49.8143 55.1516ZM39.9643 25.5444C39.8569 25.4381 39.7119 25.3784 39.5607 25.3784C39.4096 25.3784 39.2645 25.4381 39.1571 25.5444L33.1214 31.5801C31.7857 31.223 30.3071 31.5658 29.2571 32.6158C28.8852 32.987 28.5902 33.4279 28.3889 33.9133C28.1876 34.3987 28.0839 34.9189 28.0839 35.4444C28.0839 35.9699 28.1876 36.4902 28.3889 36.9755C28.5902 37.4609 28.8852 37.9018 29.2571 38.273C29.6283 38.6449 30.0692 38.9399 30.5546 39.1412C31.04 39.3426 31.5603 39.4462 32.0857 39.4462C32.6112 39.4462 33.1315 39.3426 33.6168 39.1412C34.1022 38.9399 34.5431 38.6449 34.9143 38.273C35.4118 37.777 35.7695 37.1585 35.9514 36.48C36.1332 35.8015 36.1327 35.087 35.95 34.4087L41.9857 28.373C42.2071 28.1515 42.2071 27.7873 41.9857 27.5658L39.9643 25.5444ZM30.4286 18.2944H33.5714C33.8857 18.2944 34.1429 18.0373 34.1429 17.723V12.0087C34.1429 11.6944 33.8857 11.4373 33.5714 11.4373H30.4286C30.1143 11.4373 29.8571 11.6944 29.8571 12.0087V17.723C29.8571 18.0373 30.1143 18.2944 30.4286 18.2944ZM49 33.8658V37.0087C49 37.323 49.2571 37.5801 49.5714 37.5801H55.2857C55.6 37.5801 55.8571 37.323 55.8571 37.0087V33.8658C55.8571 33.5515 55.6 33.2944 55.2857 33.2944H49.5714C49.2571 33.2944 49 33.5515 49 33.8658ZM49.9071 19.7801L47.6857 17.5587C47.5783 17.4523 47.4333 17.3927 47.2821 17.3927C47.131 17.3927 46.986 17.4523 46.8786 17.5587L42.8357 21.6015C42.7294 21.7089 42.6697 21.854 42.6697 22.0051C42.6697 22.1563 42.7294 22.3013 42.8357 22.4087L45.0571 24.6301C45.2786 24.8515 45.6429 24.8515 45.8643 24.6301L49.9071 20.5873C50.1286 20.3658 50.1286 20.0015 49.9071 19.7801ZM17.15 17.5587C17.0426 17.4523 16.8976 17.3927 16.7464 17.3927C16.5953 17.3927 16.4503 17.4523 16.3429 17.5587L14.1214 19.7801C14.0151 19.8875 13.9554 20.0325 13.9554 20.1837C13.9554 20.3348 14.0151 20.4799 14.1214 20.5873L18.1643 24.6301C18.3857 24.8515 18.75 24.8515 18.9714 24.6301L21.1929 22.4087C21.4143 22.1873 21.4143 21.823 21.1929 21.6015L17.15 17.5587ZM14.1429 33.2944H8.42857C8.11429 33.2944 7.85714 33.5515 7.85714 33.8658V37.0087C7.85714 37.323 8.11429 37.5801 8.42857 37.5801H14.1429C14.4571 37.5801 14.7143 37.323 14.7143 37.0087V33.8658C14.7143 33.5515 14.4571 33.2944 14.1429 33.2944Z" fill="black" fill-opacity="0.85"/>
</g>
<defs>
<clipPath id="clip0_179888_172633">
<rect width="64" height="64" fill="white"/>
</clipPath>
</defs>
</svg>
