<svg width="397" height="144" viewBox="0 0 397 144" fill="none" xmlns="http://www.w3.org/2000/svg">
<path d="M8.89532 63.1384L60.9525 11.0769L113.01 63.1384L60.9525 115.2L8.89532 63.1384Z" fill="url(#paint0_linear_179759_185934)"/>
<path d="M60.9525 144L46.5537 129.6L60.9525 115.2L75.3513 129.6L60.9525 144ZM60.9525 115.2L48.7689 103.015L34.3701 117.415L46.5537 129.6L60.9525 115.2ZM48.7689 103.015L35.4777 89.7231L21.0789 104.123L34.3701 117.415L48.7689 103.015ZM35.4777 89.7231L22.1865 76.4307L7.78775 90.8308L21.0789 104.123L35.4777 89.7231ZM22.1865 76.4307L8.89534 63.1384L5.57256 66.4615C-1.07319 73.1077 -2.18075 80.8615 4.46492 87.5077L7.78775 90.8308L22.1865 76.4307ZM100.826 104.123L86.4273 89.7231L73.1361 103.015L87.5349 117.415L100.826 104.123ZM114.117 90.8308L99.7185 76.4307L86.4273 89.7231L100.826 104.123L114.117 90.8308ZM117.44 87.5077C124.086 80.8615 122.978 73.1077 116.332 66.4615L113.01 63.1384L99.7185 76.4307L114.117 90.8308L117.44 87.5077ZM87.5349 117.415L73.1361 103.015L60.9525 115.2L75.3513 129.6L87.5349 117.415Z" fill="url(#paint1_linear_179759_185934)"/>
<path d="M60.9525 144L46.5537 129.6L60.9525 115.2L75.3513 129.6L60.9525 144ZM60.9525 115.2L48.7689 103.015L34.3701 117.415L46.5537 129.6L60.9525 115.2ZM48.7689 103.015L35.4777 89.7231L21.0789 104.123L34.3701 117.415L48.7689 103.015ZM35.4777 89.7231L22.1865 76.4307L7.78775 90.8308L21.0789 104.123L35.4777 89.7231ZM22.1865 76.4307L8.89534 63.1384L5.57256 66.4615C-1.07319 73.1077 -2.18075 80.8615 4.46492 87.5077L7.78775 90.8308L22.1865 76.4307ZM100.826 104.123L86.4273 89.7231L73.1361 103.015L87.5349 117.415L100.826 104.123ZM114.117 90.8308L99.7185 76.4307L86.4273 89.7231L100.826 104.123L114.117 90.8308ZM117.44 87.5077C124.086 80.8615 122.978 73.1077 116.332 66.4615L113.01 63.1384L99.7185 76.4307L114.117 90.8308L117.44 87.5077ZM87.5349 117.415L73.1361 103.015L60.9525 115.2L75.3513 129.6L87.5349 117.415Z" fill="url(#paint2_linear_179759_185934)"/>
<path d="M60.9526 115.2L53.4646 107.815C50.1574 104.554 50.1574 99.2616 53.4646 96.0001L60.9526 88.6155L68.4406 96.0001C71.7478 99.2616 71.7478 104.554 68.4406 107.815L60.9526 115.2Z" fill="#FF3E5F"/>
<path d="M60.9525 35.4462L47.6613 22.1539L60.9525 8.86157L74.2437 22.1539L60.9525 35.4462Z" fill="url(#paint3_linear_179759_185934)"/>
<path d="M60.9525 62.0308L47.6613 48.7385L60.9525 35.4462L74.2437 48.7385L60.9525 62.0308Z" fill="url(#paint4_linear_179759_185934)"/>
<path d="M74.2437 75.3232L60.9525 62.0308L74.2437 48.7385L87.5349 62.0308L74.2437 75.3232Z" fill="url(#paint5_linear_179759_185934)"/>
<path d="M47.6613 75.3232L34.3701 62.0308L47.6613 48.7385L60.9525 62.0308L47.6613 75.3232Z" fill="url(#paint6_linear_179759_185934)"/>
<path d="M74.2437 48.7385L60.9525 35.4462L47.6613 48.7385L60.9525 62.0308L74.2437 48.7385Z" fill="#418DF9"/>
<path d="M74.2437 22.1539L60.9525 8.86157L47.6613 22.1539L60.9525 35.4462L74.2437 22.1539Z" fill="#1F6AF6"/>
<path d="M74.2438 75.3231L87.535 88.6154V62.0308L74.2438 75.3231Z" fill="#1F6AF6"/>
<path d="M74.2437 75.3231L60.9525 62.0308L47.6613 75.3231L60.9525 88.6154L74.2437 75.3231Z" fill="#1F6AF6"/>
<path d="M60.9525 62.0308L47.6613 48.7385L34.3701 62.0309L47.6613 75.3232L60.9525 62.0308Z" fill="#418DF9"/>
<path d="M87.5349 62.0308L74.2437 48.7385L60.9525 62.0308L74.2437 75.3233L87.5349 62.0308Z" fill="#418DF9"/>
<path d="M60.9546 35.4482L74.2359 48.7384L74.2436 22.1538L60.9546 35.4482Z" fill="#317CFF"/>
<path d="M34.3702 62.0305V88.6153L47.6614 75.323L34.3702 62.0305Z" fill="#1F6AF6"/>
<path d="M60.9525 35.4461L47.6613 22.1538V48.7384L60.9525 35.4461Z" fill="#317CFF"/>
<path d="M60.9525 62.0308L74.2437 75.3231V48.7385L60.9525 62.0308Z" fill="#317CFF"/>
<path d="M60.9525 62.0308L47.6613 48.7385V75.3232L60.9525 62.0308Z" fill="#317CFF"/>
<path d="M60.9526 25.4769L47.6614 12.1846L59.5163 0.592694C60.3169 -0.197565 61.6716 -0.197565 62.4721 0.592694L74.2438 12.1846L60.9526 25.4769Z" fill="#1F6AF6"/>
<path d="M47.6613 12.1847H74.2437V22.1539H47.6613V12.1847Z" fill="#1F6AF6"/>
<path d="M160.263 48.7612H169.223L158.023 104.761H149.223L138.023 48.7612H146.983L153.623 86.6012L160.263 48.7612Z" fill="white"/>
<path d="M196.512 95.9612H182.112V48.7612H173.312V104.761H196.512V95.9612Z" fill="white"/>
<path d="M213.293 105.401C217.133 105.401 220.227 104.308 222.573 102.121C225.24 99.5612 226.573 96.0679 226.573 91.6412V84.4412H217.773V91.6412C217.773 93.6146 217.4 94.9479 216.653 95.6412C215.96 96.2812 214.84 96.6012 213.293 96.6012C211.8 96.6012 210.707 96.2812 210.013 95.6412C209.213 94.8946 208.813 93.5612 208.813 91.6412V61.8812C208.813 59.9612 209.213 58.6279 210.013 57.8812C210.707 57.2412 211.8 56.9212 213.293 56.9212C214.84 56.9212 215.96 57.2412 216.653 57.8812C217.4 58.5746 217.773 59.9079 217.773 61.8812V66.8412H226.573V61.8812C226.573 57.4546 225.24 53.9612 222.573 51.4012C220.227 49.2145 217.133 48.1212 213.293 48.1212C209.56 48.1212 206.467 49.2145 204.013 51.4012C201.347 54.0679 200.013 57.5612 200.013 61.8812V91.6412C200.013 95.9612 201.347 99.4546 204.013 102.121C206.467 104.308 209.56 105.401 213.293 105.401Z" fill="white"/>
<path d="M244.622 105.401C248.462 105.401 251.555 104.308 253.902 102.121C256.568 99.5612 257.902 96.0679 257.902 91.6412V61.8812C257.902 57.4546 256.568 53.9612 253.902 51.4012C251.555 49.2145 248.462 48.1212 244.622 48.1212C240.782 48.1212 237.688 49.2145 235.342 51.4012C232.675 53.9612 231.342 57.4546 231.342 61.8812V91.6412C231.342 96.0679 232.675 99.5612 235.342 102.121C237.688 104.308 240.782 105.401 244.622 105.401ZM244.622 56.9212C246.168 56.9212 247.262 57.2412 247.902 57.8812C248.702 58.5746 249.102 59.9079 249.102 61.8812V91.6412C249.102 93.6146 248.702 94.9479 247.902 95.6412C247.262 96.2812 246.168 96.6012 244.622 96.6012C243.128 96.6012 242.035 96.2812 241.342 95.6412C240.542 94.8946 240.142 93.5612 240.142 91.6412V61.8812C240.142 59.9612 240.542 58.6279 241.342 57.8812C242.035 57.2412 243.128 56.9212 244.622 56.9212Z" fill="white"/>
<path d="M275.546 105.401C279.386 105.401 282.479 104.308 284.826 102.121C287.493 99.5612 288.826 96.0679 288.826 91.6412V88.1212C288.826 83.0012 286.853 78.6812 282.906 75.1612C281.839 74.2012 279.919 72.9746 277.146 71.4812C275.599 70.6279 274.559 69.9879 274.026 69.5612C272.053 67.8012 271.066 65.6946 271.066 63.2412V61.8812C271.066 59.9612 271.466 58.6279 272.266 57.8812C272.959 57.2412 274.053 56.9212 275.546 56.9212C277.093 56.9212 278.186 57.2412 278.826 57.8812C279.626 58.5746 280.026 59.9079 280.026 61.8812V66.7612H288.826V61.8812C288.826 57.4546 287.493 53.9612 284.826 51.4012C282.479 49.2145 279.386 48.1212 275.546 48.1212C271.706 48.1212 268.613 49.2145 266.266 51.4012C263.599 53.9612 262.266 57.4546 262.266 61.8812V63.2412C262.266 65.7479 262.773 68.0946 263.786 70.2812C264.799 72.4679 266.266 74.4146 268.186 76.1212C269.359 77.1346 271.199 78.3079 273.706 79.6412C275.519 80.6546 276.639 81.3479 277.066 81.7212C279.039 83.5346 280.026 85.6679 280.026 88.1212V91.6412C280.026 93.6146 279.626 94.9479 278.826 95.6412C278.186 96.2812 277.093 96.6012 275.546 96.6012C274.053 96.6012 272.959 96.2812 272.266 95.6412C271.466 94.8946 271.066 93.5612 271.066 91.6412V84.3612H262.266V91.6412C262.266 96.0679 263.599 99.5612 266.266 102.121C268.613 104.308 271.706 105.401 275.546 105.401Z" fill="white"/>
<path d="M318.257 57.5612H309.297V104.761H300.497V57.5612H291.537V48.7612H318.257V57.5612Z" fill="white"/>
<path d="M330.94 48.7612H322.14V104.761H330.94V48.7612Z" fill="white"/>
<path d="M364.414 104.761H359.294L345.854 76.3612V104.761H337.054V48.7612H342.174L355.614 77.0812V48.7612H364.414V104.761Z" fill="white"/>
<path d="M383.059 105.401C386.899 105.401 389.992 104.308 392.339 102.121C395.006 99.5612 396.339 96.0679 396.339 91.6412V72.3612H383.139V81.1612H387.539V91.6412C387.539 93.6146 387.166 94.9479 386.419 95.6412C385.726 96.2812 384.606 96.6012 383.059 96.6012C381.566 96.6012 380.472 96.2812 379.779 95.6412C378.979 94.8946 378.579 93.5612 378.579 91.6412V61.8812C378.579 59.9612 378.979 58.6279 379.779 57.8812C380.472 57.2412 381.566 56.9212 383.059 56.9212C384.606 56.9212 385.726 57.2412 386.419 57.8812C387.166 58.5746 387.539 59.9079 387.539 61.8812V66.8412H396.339V61.8812C396.339 57.4546 395.006 53.9612 392.339 51.4012C389.992 49.2145 386.899 48.1212 383.059 48.1212C379.326 48.1212 376.232 49.2145 373.779 51.4012C371.112 54.0679 369.779 57.5612 369.779 61.8812V91.6412C369.779 95.9612 371.112 99.4546 373.779 102.121C376.232 104.308 379.326 105.401 383.059 105.401Z" fill="white"/>
<defs>
<linearGradient id="paint0_linear_179759_185934" x1="60.9525" y1="115.194" x2="60.3987" y2="11.6422" gradientUnits="userSpaceOnUse">
<stop offset="0.250503" stop-color="#FF9700"/>
<stop offset="0.751396" stop-color="#FF7519"/>
</linearGradient>
<linearGradient id="paint1_linear_179759_185934" x1="61.1098" y1="142.891" x2="61.067" y2="63.1203" gradientUnits="userSpaceOnUse">
<stop stop-color="#004AE7"/>
<stop offset="0.0723398" stop-color="#054FE9"/>
<stop offset="0.5228" stop-color="#1F6AF6"/>
<stop offset="0.7247" stop-color="#2974FB"/>
<stop offset="1" stop-color="#317CFF"/>
</linearGradient>
<linearGradient id="paint2_linear_179759_185934" x1="61.1098" y1="142.891" x2="61.067" y2="63.1203" gradientUnits="userSpaceOnUse">
<stop stop-color="#004AE7"/>
<stop offset="0.0723398" stop-color="#054FE9"/>
<stop offset="0.5228" stop-color="#1F6AF6"/>
<stop offset="0.7247" stop-color="#2974FB"/>
<stop offset="1" stop-color="#317CFF"/>
</linearGradient>
<linearGradient id="paint3_linear_179759_185934" x1="47.5574" y1="24.3679" x2="73.8197" y2="24.3679" gradientUnits="userSpaceOnUse">
<stop offset="0.0650528" stop-color="#FF7519"/>
<stop offset="0.0949166" stop-color="#FF7817"/>
<stop offset="0.3975" stop-color="#FF8F06"/>
<stop offset="0.5883" stop-color="#FF9700"/>
</linearGradient>
<linearGradient id="paint4_linear_179759_185934" x1="47.5575" y1="50.3067" x2="73.8197" y2="50.3067" gradientUnits="userSpaceOnUse">
<stop offset="0.0650528" stop-color="#FF7519"/>
<stop offset="0.0949166" stop-color="#FF7817"/>
<stop offset="0.3975" stop-color="#FF8F06"/>
<stop offset="0.5883" stop-color="#FF9700"/>
</linearGradient>
<linearGradient id="paint5_linear_179759_185934" x1="60.6885" y1="63.2761" x2="86.9507" y2="63.2761" gradientUnits="userSpaceOnUse">
<stop offset="0.0650528" stop-color="#FF7519"/>
<stop offset="0.0949166" stop-color="#FF7817"/>
<stop offset="0.3975" stop-color="#FF8F06"/>
<stop offset="0.5883" stop-color="#FF9700"/>
</linearGradient>
<linearGradient id="paint6_linear_179759_185934" x1="34.4262" y1="63.2761" x2="60.6884" y2="63.2761" gradientUnits="userSpaceOnUse">
<stop offset="0.0650528" stop-color="#FF7519"/>
<stop offset="0.0949166" stop-color="#FF7817"/>
<stop offset="0.3975" stop-color="#FF8F06"/>
<stop offset="0.5883" stop-color="#FF9700"/>
</linearGradient>
</defs>
</svg>
