<svg width="177" height="64" viewBox="0 0 177 64" fill="none" xmlns="http://www.w3.org/2000/svg">
<path d="M3.95349 28.0615L27.09 4.92305L50.2265 28.0615L27.09 51.2L3.95349 28.0615Z" fill="url(#paint0_linear_179759_185960)"/>
<path d="M27.09 64L20.6905 57.6L27.09 51.2L33.4895 57.6L27.09 64ZM27.09 51.2L21.6751 45.7846L15.2756 52.1846L20.6905 57.6L27.09 51.2ZM21.6751 45.7846L15.7679 39.8769L9.36842 46.2769L15.2756 52.1846L21.6751 45.7846ZM15.7679 39.8769L9.86069 33.9692L3.46122 40.3692L9.36842 46.2769L15.7679 39.8769ZM9.86069 33.9692L3.95348 28.0615L2.47669 29.5384C-0.476973 32.4923 -0.969224 35.9385 1.98441 38.8923L3.46122 40.3692L9.86069 33.9692ZM44.8116 46.2769L38.4121 39.8769L32.5049 45.7846L38.9044 52.1846L44.8116 46.2769ZM50.7188 40.3692L44.3193 33.9692L38.4121 39.8769L44.8116 46.2769L50.7188 40.3692ZM52.1956 38.8923C55.1491 35.9385 54.6569 32.4923 51.7033 29.5384L50.2265 28.0615L44.3193 33.9692L50.7188 40.3692L52.1956 38.8923ZM38.9044 52.1846L32.5049 45.7846L27.09 51.2L33.4895 57.6L38.9044 52.1846Z" fill="url(#paint1_linear_179759_185960)"/>
<path d="M27.09 64L20.6905 57.6L27.09 51.2L33.4895 57.6L27.09 64ZM27.09 51.2L21.6751 45.7846L15.2756 52.1846L20.6905 57.6L27.09 51.2ZM21.6751 45.7846L15.7679 39.8769L9.36842 46.2769L15.2756 52.1846L21.6751 45.7846ZM15.7679 39.8769L9.86069 33.9692L3.46122 40.3692L9.36842 46.2769L15.7679 39.8769ZM9.86069 33.9692L3.95348 28.0615L2.47669 29.5384C-0.476973 32.4923 -0.969224 35.9385 1.98441 38.8923L3.46122 40.3692L9.86069 33.9692ZM44.8116 46.2769L38.4121 39.8769L32.5049 45.7846L38.9044 52.1846L44.8116 46.2769ZM50.7188 40.3692L44.3193 33.9692L38.4121 39.8769L44.8116 46.2769L50.7188 40.3692ZM52.1956 38.8923C55.1491 35.9385 54.6569 32.4923 51.7033 29.5384L50.2265 28.0615L44.3193 33.9692L50.7188 40.3692L52.1956 38.8923ZM38.9044 52.1846L32.5049 45.7846L27.09 51.2L33.4895 57.6L38.9044 52.1846Z" fill="url(#paint2_linear_179759_185960)"/>
<path d="M27.0901 51.2L23.7621 47.918C22.2922 46.4684 22.2922 44.1163 23.7621 42.6667L27.0901 39.3846L30.4181 42.6667C31.8879 44.1163 31.8879 46.4684 30.4181 47.918L27.0901 51.2Z" fill="#FF3E5F"/>
<path d="M27.09 15.7539L21.1828 9.84617L27.09 3.93848L32.9972 9.84617L27.09 15.7539Z" fill="url(#paint3_linear_179759_185960)"/>
<path d="M27.09 27.5693L21.1828 21.6616L27.09 15.7539L32.9972 21.6616L27.09 27.5693Z" fill="url(#paint4_linear_179759_185960)"/>
<path d="M32.9972 33.477L27.09 27.5693L32.9972 21.6616L38.9044 27.5693L32.9972 33.477Z" fill="url(#paint5_linear_179759_185960)"/>
<path d="M21.1828 33.477L15.2756 27.5693L21.1828 21.6616L27.09 27.5693L21.1828 33.477Z" fill="url(#paint6_linear_179759_185960)"/>
<path d="M32.9972 21.6616L27.09 15.7539L21.1828 21.6616L27.09 27.5693L32.9972 21.6616Z" fill="#418DF9"/>
<path d="M32.9972 9.84618L27.09 3.93848L21.1828 9.84617L27.09 15.7539L32.9972 9.84618Z" fill="#1F6AF6"/>
<path d="M32.9973 33.4769L38.9045 39.3846V27.5692L32.9973 33.4769Z" fill="#1F6AF6"/>
<path d="M32.9972 33.4769L27.09 27.5692L21.1828 33.4769L27.09 39.3846L32.9972 33.4769Z" fill="#1F6AF6"/>
<path d="M27.09 27.5693L21.1828 21.6616L15.2756 27.5693L21.1828 33.477L27.09 27.5693Z" fill="#418DF9"/>
<path d="M38.9044 27.5693L32.9972 21.6616L27.09 27.5693L32.9972 33.4771L38.9044 27.5693Z" fill="#418DF9"/>
<path d="M27.0909 15.7547L32.9937 21.6614L32.9972 9.84607L27.0909 15.7547Z" fill="#317CFF"/>
<path d="M15.2756 27.5691V39.3845L21.1828 33.4768L15.2756 27.5691Z" fill="#1F6AF6"/>
<path d="M27.09 15.7538L21.1828 9.84607V21.6615L27.09 15.7538Z" fill="#317CFF"/>
<path d="M27.09 27.5693L32.9972 33.477V21.6616L27.09 27.5693Z" fill="#317CFF"/>
<path d="M27.09 27.5693L21.1828 21.6616V33.477L27.09 27.5693Z" fill="#317CFF"/>
<path d="M27.0901 11.3231L21.1829 5.41539L26.4517 0.263419C26.8075 -0.0878065 27.4096 -0.0878065 27.7654 0.263419L32.9973 5.41539L27.0901 11.3231Z" fill="#1F6AF6"/>
<path d="M21.1828 5.41541H32.9972V9.84618H21.1828V5.41541Z" fill="#1F6AF6"/>
<path d="M71.2279 21.6717H75.2101L70.2323 46.5606H66.3212L61.3434 21.6717H65.3257L68.2768 38.4894L71.2279 21.6717Z" fill="white"/>
<path d="M87.3385 42.6494H80.9385V21.6717H77.0273V46.5606H87.3385V42.6494Z" fill="white"/>
<path d="M94.7971 46.845C96.5037 46.845 97.8786 46.3591 98.9215 45.3872C100.107 44.2494 100.699 42.6968 100.699 40.7294V37.5294H96.7882V40.7294C96.7882 41.6065 96.6223 42.1991 96.2904 42.5072C95.9823 42.7917 95.4845 42.9339 94.7971 42.9339C94.1334 42.9339 93.6474 42.7917 93.3393 42.5072C92.9837 42.1754 92.806 41.5828 92.806 40.7294V27.5028C92.806 26.6494 92.9837 26.0568 93.3393 25.725C93.6474 25.4405 94.1334 25.2983 94.7971 25.2983C95.4845 25.2983 95.9823 25.4405 96.2904 25.725C96.6223 26.0331 96.7882 26.6257 96.7882 27.5028V29.7072H100.699V27.5028C100.699 25.5354 100.107 23.9828 98.9215 22.845C97.8786 21.8731 96.5037 21.3872 94.7971 21.3872C93.1378 21.3872 91.763 21.8731 90.6726 22.845C89.4874 24.0302 88.8948 25.5828 88.8948 27.5028V40.7294C88.8948 42.6494 89.4874 44.202 90.6726 45.3872C91.763 46.3591 93.1378 46.845 94.7971 46.845Z" fill="white"/>
<path d="M108.721 46.845C110.427 46.845 111.802 46.3591 112.845 45.3872C114.03 44.2494 114.623 42.6968 114.623 40.7294V27.5028C114.623 25.5354 114.03 23.9828 112.845 22.845C111.802 21.8731 110.427 21.3872 108.721 21.3872C107.014 21.3872 105.639 21.8731 104.596 22.845C103.411 23.9828 102.818 25.5354 102.818 27.5028V40.7294C102.818 42.6968 103.411 44.2494 104.596 45.3872C105.639 46.3591 107.014 46.845 108.721 46.845ZM108.721 25.2983C109.408 25.2983 109.894 25.4405 110.178 25.725C110.534 26.0331 110.712 26.6257 110.712 27.5028V40.7294C110.712 41.6065 110.534 42.1991 110.178 42.5072C109.894 42.7917 109.408 42.9339 108.721 42.9339C108.057 42.9339 107.571 42.7917 107.263 42.5072C106.907 42.1754 106.73 41.5828 106.73 40.7294V27.5028C106.73 26.6494 106.907 26.0568 107.263 25.725C107.571 25.4405 108.057 25.2983 108.721 25.2983Z" fill="white"/>
<path d="M122.465 46.845C124.172 46.845 125.546 46.3591 126.589 45.3872C127.774 44.2494 128.367 42.6968 128.367 40.7294V39.165C128.367 36.8894 127.49 34.9694 125.736 33.405C125.262 32.9783 124.409 32.4331 123.176 31.7694C122.489 31.3902 122.026 31.1057 121.789 30.9161C120.912 30.1339 120.474 29.1976 120.474 28.1072V27.5028C120.474 26.6494 120.652 26.0568 121.007 25.725C121.315 25.4405 121.801 25.2983 122.465 25.2983C123.152 25.2983 123.638 25.4405 123.923 25.725C124.278 26.0331 124.456 26.6257 124.456 27.5028V29.6717H128.367V27.5028C128.367 25.5354 127.774 23.9828 126.589 22.845C125.546 21.8731 124.172 21.3872 122.465 21.3872C120.758 21.3872 119.383 21.8731 118.34 22.845C117.155 23.9828 116.563 25.5354 116.563 27.5028V28.1072C116.563 29.2213 116.788 30.2642 117.238 31.2361C117.689 32.208 118.34 33.0731 119.194 33.8317C119.715 34.282 120.533 34.8035 121.647 35.3961C122.453 35.8465 122.951 36.1546 123.14 36.3205C124.017 37.1265 124.456 38.0746 124.456 39.165V40.7294C124.456 41.6065 124.278 42.1991 123.923 42.5072C123.638 42.7917 123.152 42.9339 122.465 42.9339C121.801 42.9339 121.315 42.7917 121.007 42.5072C120.652 42.1754 120.474 41.5828 120.474 40.7294V37.4939H116.563V40.7294C116.563 42.6968 117.155 44.2494 118.34 45.3872C119.383 46.3591 120.758 46.845 122.465 46.845Z" fill="white"/>
<path d="M141.447 25.5828H137.465V46.5606H133.554V25.5828H129.572V21.6717H141.447V25.5828Z" fill="white"/>
<path d="M147.084 21.6717H143.173V46.5606H147.084V21.6717Z" fill="white"/>
<path d="M161.962 46.5606H159.686L153.713 33.9383V46.5606H149.802V21.6717H152.077L158.051 34.2583V21.6717H161.962V46.5606Z" fill="white"/>
<path d="M170.248 46.845C171.955 46.845 173.33 46.3591 174.373 45.3872C175.558 44.2494 176.151 42.6968 176.151 40.7294V32.1605H170.284V36.0717H172.24V40.7294C172.24 41.6065 172.074 42.1991 171.742 42.5072C171.434 42.7917 170.936 42.9339 170.248 42.9339C169.585 42.9339 169.099 42.7917 168.791 42.5072C168.435 42.1754 168.257 41.5828 168.257 40.7294V27.5028C168.257 26.6494 168.435 26.0568 168.791 25.725C169.099 25.4405 169.585 25.2983 170.248 25.2983C170.936 25.2983 171.434 25.4405 171.742 25.725C172.074 26.0331 172.24 26.6257 172.24 27.5028V29.7072H176.151V27.5028C176.151 25.5354 175.558 23.9828 174.373 22.845C173.33 21.8731 171.955 21.3872 170.248 21.3872C168.589 21.3872 167.214 21.8731 166.124 22.845C164.939 24.0302 164.346 25.5828 164.346 27.5028V40.7294C164.346 42.6494 164.939 44.202 166.124 45.3872C167.214 46.3591 168.589 46.845 170.248 46.845Z" fill="white"/>
<defs>
<linearGradient id="paint0_linear_179759_185960" x1="27.09" y1="51.1975" x2="26.8439" y2="5.17429" gradientUnits="userSpaceOnUse">
<stop offset="0.250503" stop-color="#FF9700"/>
<stop offset="0.751396" stop-color="#FF7519"/>
</linearGradient>
<linearGradient id="paint1_linear_179759_185960" x1="27.1599" y1="63.5069" x2="27.1409" y2="28.0535" gradientUnits="userSpaceOnUse">
<stop stop-color="#004AE7"/>
<stop offset="0.0723398" stop-color="#054FE9"/>
<stop offset="0.5228" stop-color="#1F6AF6"/>
<stop offset="0.7247" stop-color="#2974FB"/>
<stop offset="1" stop-color="#317CFF"/>
</linearGradient>
<linearGradient id="paint2_linear_179759_185960" x1="27.1599" y1="63.5069" x2="27.1409" y2="28.0535" gradientUnits="userSpaceOnUse">
<stop stop-color="#004AE7"/>
<stop offset="0.0723398" stop-color="#054FE9"/>
<stop offset="0.5228" stop-color="#1F6AF6"/>
<stop offset="0.7247" stop-color="#2974FB"/>
<stop offset="1" stop-color="#317CFF"/>
</linearGradient>
<linearGradient id="paint3_linear_179759_185960" x1="21.1366" y1="10.8302" x2="32.8088" y2="10.8302" gradientUnits="userSpaceOnUse">
<stop offset="0.0650528" stop-color="#FF7519"/>
<stop offset="0.0949166" stop-color="#FF7817"/>
<stop offset="0.3975" stop-color="#FF8F06"/>
<stop offset="0.5883" stop-color="#FF9700"/>
</linearGradient>
<linearGradient id="paint4_linear_179759_185960" x1="21.1367" y1="22.3586" x2="32.8087" y2="22.3586" gradientUnits="userSpaceOnUse">
<stop offset="0.0650528" stop-color="#FF7519"/>
<stop offset="0.0949166" stop-color="#FF7817"/>
<stop offset="0.3975" stop-color="#FF8F06"/>
<stop offset="0.5883" stop-color="#FF9700"/>
</linearGradient>
<linearGradient id="paint5_linear_179759_185960" x1="26.9727" y1="28.1228" x2="38.6448" y2="28.1228" gradientUnits="userSpaceOnUse">
<stop offset="0.0650528" stop-color="#FF7519"/>
<stop offset="0.0949166" stop-color="#FF7817"/>
<stop offset="0.3975" stop-color="#FF8F06"/>
<stop offset="0.5883" stop-color="#FF9700"/>
</linearGradient>
<linearGradient id="paint6_linear_179759_185960" x1="15.3006" y1="28.1228" x2="26.9726" y2="28.1228" gradientUnits="userSpaceOnUse">
<stop offset="0.0650528" stop-color="#FF7519"/>
<stop offset="0.0949166" stop-color="#FF7817"/>
<stop offset="0.3975" stop-color="#FF8F06"/>
<stop offset="0.5883" stop-color="#FF9700"/>
</linearGradient>
</defs>
</svg>
