<svg width="82" height="96" viewBox="0 0 82 96" fill="none" xmlns="http://www.w3.org/2000/svg">
<path d="M6.15625 42.0923L40.861 7.38457L75.5658 42.0923L40.861 76.8L6.15625 42.0923Z" fill="url(#paint0_linear_179759_185804)"/>
<path d="M40.8611 96L31.2619 86.4L40.8611 76.8L50.4603 86.4L40.8611 96ZM40.8611 76.8L32.7387 68.6769L23.1395 78.2769L31.2619 86.4L40.8611 76.8ZM32.7387 68.6769L23.8779 59.8154L14.2787 69.4154L23.1395 78.2769L32.7387 68.6769ZM23.8779 59.8154L15.0171 50.9538L5.41791 60.5538L14.2787 69.4154L23.8779 59.8154ZM15.0171 50.9538L6.1563 42.0923L3.94111 44.3077C-0.489386 48.7384 -1.22776 53.9077 3.20269 58.3384L5.41791 60.5538L15.0171 50.9538ZM67.4435 69.4154L57.8443 59.8154L48.9835 68.6769L58.5827 78.2769L67.4435 69.4154ZM76.3042 60.5538L66.7051 50.9538L57.8443 59.8154L67.4435 69.4154L76.3042 60.5538ZM78.5194 58.3384C82.9498 53.9077 82.2114 48.7384 77.7811 44.3077L75.5659 42.0923L66.7051 50.9538L76.3042 60.5538L78.5194 58.3384ZM58.5827 78.2769L48.9835 68.6769L40.8611 76.8L50.4603 86.4L58.5827 78.2769Z" fill="url(#paint1_linear_179759_185804)"/>
<path d="M40.8611 96L31.2619 86.4L40.8611 76.8L50.4603 86.4L40.8611 96ZM40.8611 76.8L32.7387 68.6769L23.1395 78.2769L31.2619 86.4L40.8611 76.8ZM32.7387 68.6769L23.8779 59.8154L14.2787 69.4154L23.1395 78.2769L32.7387 68.6769ZM23.8779 59.8154L15.0171 50.9538L5.41791 60.5538L14.2787 69.4154L23.8779 59.8154ZM15.0171 50.9538L6.1563 42.0923L3.94111 44.3077C-0.489386 48.7384 -1.22776 53.9077 3.20269 58.3384L5.41791 60.5538L15.0171 50.9538ZM67.4435 69.4154L57.8443 59.8154L48.9835 68.6769L58.5827 78.2769L67.4435 69.4154ZM76.3042 60.5538L66.7051 50.9538L57.8443 59.8154L67.4435 69.4154L76.3042 60.5538ZM78.5194 58.3384C82.9498 53.9077 82.2114 48.7384 77.7811 44.3077L75.5659 42.0923L66.7051 50.9538L76.3042 60.5538L78.5194 58.3384ZM58.5827 78.2769L48.9835 68.6769L40.8611 76.8L50.4603 86.4L58.5827 78.2769Z" fill="url(#paint2_linear_179759_185804)"/>
<path d="M40.8612 76.8L35.8692 71.8769C33.6644 69.7026 33.6644 66.1743 35.8692 64L40.8612 59.0769L45.8532 64C48.058 66.1743 48.058 69.7026 45.8532 71.8769L40.8612 76.8Z" fill="#FF3E5F"/>
<path d="M40.8612 23.6308L32.0004 14.7693L40.8612 5.90771L49.722 14.7693L40.8612 23.6308Z" fill="url(#paint3_linear_179759_185804)"/>
<path d="M40.8612 41.3539L32.0004 32.4924L40.8612 23.6309L49.722 32.4924L40.8612 41.3539Z" fill="url(#paint4_linear_179759_185804)"/>
<path d="M49.7219 50.2155L40.8611 41.354L49.7219 32.4924L58.5827 41.354L49.7219 50.2155Z" fill="url(#paint5_linear_179759_185804)"/>
<path d="M32.0003 50.2155L23.1395 41.354L32.0003 32.4924L40.8611 41.354L32.0003 50.2155Z" fill="url(#paint6_linear_179759_185804)"/>
<path d="M49.7219 32.4924L40.8611 23.6309L32.0003 32.4924L40.8611 41.354L49.7219 32.4924Z" fill="#418DF9"/>
<path d="M49.7219 14.7693L40.8611 5.90771L32.0003 14.7693L40.8611 23.6308L49.7219 14.7693Z" fill="#1F6AF6"/>
<path d="M49.7219 50.2153L58.5827 59.0769V41.3538L49.7219 50.2153Z" fill="#1F6AF6"/>
<path d="M49.7219 50.2153L40.8611 41.3538L32.0003 50.2153L40.8611 59.0768L49.7219 50.2153Z" fill="#1F6AF6"/>
<path d="M40.8612 41.354L32.0004 32.4924L23.1396 41.354L32.0004 50.2156L40.8612 41.354Z" fill="#418DF9"/>
<path d="M58.5827 41.354L49.7219 32.4924L40.8611 41.354L49.7219 50.2156L58.5827 41.354Z" fill="#418DF9"/>
<path d="M40.8625 23.6322L49.7167 32.4923L49.7219 14.7693L40.8625 23.6322Z" fill="#317CFF"/>
<path d="M23.1395 41.3538V59.0769L32.0003 50.2154L23.1395 41.3538Z" fill="#1F6AF6"/>
<path d="M40.8612 23.6308L32.0004 14.7693V32.4924L40.8612 23.6308Z" fill="#317CFF"/>
<path d="M40.8611 41.354L49.7219 50.2155V32.4924L40.8611 41.354Z" fill="#317CFF"/>
<path d="M40.8612 41.354L32.0004 32.4924V50.2155L40.8612 41.354Z" fill="#317CFF"/>
<path d="M40.8612 16.9846L32.0004 8.12308L39.9037 0.395129C40.4374 -0.13171 41.3405 -0.13171 41.8742 0.395129L49.722 8.12308L40.8612 16.9846Z" fill="#1F6AF6"/>
<path d="M32.0004 8.12305H49.722V14.7692H32.0004V8.12305Z" fill="#1F6AF6"/>
<defs>
<linearGradient id="paint0_linear_179759_185804" x1="40.861" y1="76.7963" x2="40.4918" y2="7.76144" gradientUnits="userSpaceOnUse">
<stop offset="0.250503" stop-color="#FF9700"/>
<stop offset="0.751396" stop-color="#FF7519"/>
</linearGradient>
<linearGradient id="paint1_linear_179759_185804" x1="40.9659" y1="95.2604" x2="40.9374" y2="42.0802" gradientUnits="userSpaceOnUse">
<stop stop-color="#004AE7"/>
<stop offset="0.0723398" stop-color="#054FE9"/>
<stop offset="0.5228" stop-color="#1F6AF6"/>
<stop offset="0.7247" stop-color="#2974FB"/>
<stop offset="1" stop-color="#317CFF"/>
</linearGradient>
<linearGradient id="paint2_linear_179759_185804" x1="40.9659" y1="95.2604" x2="40.9374" y2="42.0802" gradientUnits="userSpaceOnUse">
<stop stop-color="#004AE7"/>
<stop offset="0.0723398" stop-color="#054FE9"/>
<stop offset="0.5228" stop-color="#1F6AF6"/>
<stop offset="0.7247" stop-color="#2974FB"/>
<stop offset="1" stop-color="#317CFF"/>
</linearGradient>
<linearGradient id="paint3_linear_179759_185804" x1="31.9311" y1="16.2453" x2="49.4393" y2="16.2453" gradientUnits="userSpaceOnUse">
<stop offset="0.0650528" stop-color="#FF7519"/>
<stop offset="0.0949166" stop-color="#FF7817"/>
<stop offset="0.3975" stop-color="#FF8F06"/>
<stop offset="0.5883" stop-color="#FF9700"/>
</linearGradient>
<linearGradient id="paint4_linear_179759_185804" x1="31.9311" y1="33.5379" x2="49.4393" y2="33.5379" gradientUnits="userSpaceOnUse">
<stop offset="0.0650528" stop-color="#FF7519"/>
<stop offset="0.0949166" stop-color="#FF7817"/>
<stop offset="0.3975" stop-color="#FF8F06"/>
<stop offset="0.5883" stop-color="#FF9700"/>
</linearGradient>
<linearGradient id="paint5_linear_179759_185804" x1="40.6851" y1="42.1842" x2="58.1932" y2="42.1842" gradientUnits="userSpaceOnUse">
<stop offset="0.0650528" stop-color="#FF7519"/>
<stop offset="0.0949166" stop-color="#FF7817"/>
<stop offset="0.3975" stop-color="#FF8F06"/>
<stop offset="0.5883" stop-color="#FF9700"/>
</linearGradient>
<linearGradient id="paint6_linear_179759_185804" x1="23.1769" y1="42.1842" x2="40.685" y2="42.1842" gradientUnits="userSpaceOnUse">
<stop offset="0.0650528" stop-color="#FF7519"/>
<stop offset="0.0949166" stop-color="#FF7817"/>
<stop offset="0.3975" stop-color="#FF8F06"/>
<stop offset="0.5883" stop-color="#FF9700"/>
</linearGradient>
</defs>
</svg>
