<svg width="265" height="96" viewBox="0 0 265 96" fill="none" xmlns="http://www.w3.org/2000/svg">
<path d="M5.93024 42.0923L40.635 7.38457L75.3398 42.0923L40.635 76.8L5.93024 42.0923Z" fill="url(#paint0_linear_179759_185908)"/>
<path d="M40.635 96L31.0358 86.4L40.635 76.8L50.2342 86.4L40.635 96ZM40.635 76.8L32.5126 68.6769L22.9134 78.2769L31.0358 86.4L40.635 76.8ZM32.5126 68.6769L23.6518 59.8154L14.0526 69.4154L22.9134 78.2769L32.5126 68.6769ZM23.6518 59.8154L14.791 50.9538L5.19183 60.5538L14.0526 69.4154L23.6518 59.8154ZM14.791 50.9538L5.93023 42.0923L3.71504 44.3077C-0.71546 48.7384 -1.45384 53.9077 2.97662 58.3384L5.19183 60.5538L14.791 50.9538ZM67.2174 69.4154L57.6182 59.8154L48.7574 68.6769L58.3566 78.2769L67.2174 69.4154ZM76.0782 60.5538L66.479 50.9538L57.6182 59.8154L67.2174 69.4154L76.0782 60.5538ZM78.2934 58.3384C82.7237 53.9077 81.9853 48.7384 77.555 44.3077L75.3398 42.0923L66.479 50.9538L76.0782 60.5538L78.2934 58.3384ZM58.3566 78.2769L48.7574 68.6769L40.635 76.8L50.2342 86.4L58.3566 78.2769Z" fill="url(#paint1_linear_179759_185908)"/>
<path d="M40.635 96L31.0358 86.4L40.635 76.8L50.2342 86.4L40.635 96ZM40.635 76.8L32.5126 68.6769L22.9134 78.2769L31.0358 86.4L40.635 76.8ZM32.5126 68.6769L23.6518 59.8154L14.0526 69.4154L22.9134 78.2769L32.5126 68.6769ZM23.6518 59.8154L14.791 50.9538L5.19183 60.5538L14.0526 69.4154L23.6518 59.8154ZM14.791 50.9538L5.93023 42.0923L3.71504 44.3077C-0.71546 48.7384 -1.45384 53.9077 2.97662 58.3384L5.19183 60.5538L14.791 50.9538ZM67.2174 69.4154L57.6182 59.8154L48.7574 68.6769L58.3566 78.2769L67.2174 69.4154ZM76.0782 60.5538L66.479 50.9538L57.6182 59.8154L67.2174 69.4154L76.0782 60.5538ZM78.2934 58.3384C82.7237 53.9077 81.9853 48.7384 77.555 44.3077L75.3398 42.0923L66.479 50.9538L76.0782 60.5538L78.2934 58.3384ZM58.3566 78.2769L48.7574 68.6769L40.635 76.8L50.2342 86.4L58.3566 78.2769Z" fill="url(#paint2_linear_179759_185908)"/>
<path d="M40.635 76.8L35.643 71.8769C33.4382 69.7026 33.4382 66.1743 35.643 64L40.635 59.0769L45.627 64C47.8318 66.1743 47.8318 69.7026 45.627 71.8769L40.635 76.8Z" fill="#FF3E5F"/>
<path d="M40.635 23.6308L31.7742 14.7693L40.635 5.90771L49.4958 14.7693L40.635 23.6308Z" fill="url(#paint3_linear_179759_185908)"/>
<path d="M40.635 41.3539L31.7742 32.4924L40.635 23.6309L49.4958 32.4924L40.635 41.3539Z" fill="url(#paint4_linear_179759_185908)"/>
<path d="M49.4958 50.2155L40.635 41.354L49.4958 32.4924L58.3566 41.354L49.4958 50.2155Z" fill="url(#paint5_linear_179759_185908)"/>
<path d="M31.7742 50.2155L22.9134 41.354L31.7742 32.4924L40.635 41.354L31.7742 50.2155Z" fill="url(#paint6_linear_179759_185908)"/>
<path d="M49.4958 32.4924L40.635 23.6309L31.7742 32.4924L40.635 41.354L49.4958 32.4924Z" fill="#418DF9"/>
<path d="M49.4957 14.7693L40.6349 5.90771L31.7742 14.7693L40.6349 23.6308L49.4957 14.7693Z" fill="#1F6AF6"/>
<path d="M49.4958 50.2153L58.3567 59.0769V41.3538L49.4958 50.2153Z" fill="#1F6AF6"/>
<path d="M49.4957 50.2153L40.6349 41.3538L31.7742 50.2153L40.6349 59.0768L49.4957 50.2153Z" fill="#1F6AF6"/>
<path d="M40.635 41.354L31.7742 32.4924L22.9134 41.354L31.7742 50.2156L40.635 41.354Z" fill="#418DF9"/>
<path d="M58.3566 41.354L49.4958 32.4924L40.635 41.354L49.4958 50.2156L58.3566 41.354Z" fill="#418DF9"/>
<path d="M40.6364 23.6322L49.4906 32.4923L49.4958 14.7693L40.6364 23.6322Z" fill="#317CFF"/>
<path d="M22.9135 41.3538V59.0769L31.7742 50.2154L22.9135 41.3538Z" fill="#1F6AF6"/>
<path d="M40.635 23.6308L31.7742 14.7693V32.4924L40.635 23.6308Z" fill="#317CFF"/>
<path d="M40.635 41.354L49.4958 50.2155V32.4924L40.635 41.354Z" fill="#317CFF"/>
<path d="M40.635 41.354L31.7742 32.4924V50.2155L40.635 41.354Z" fill="#317CFF"/>
<path d="M40.635 16.9846L31.7742 8.12308L39.6775 0.395129C40.2112 -0.13171 41.1144 -0.13171 41.6481 0.395129L49.4958 8.12308L40.635 16.9846Z" fill="#1F6AF6"/>
<path d="M31.7742 8.12305H49.4958V14.7692H31.7742V8.12305Z" fill="#1F6AF6"/>
<path d="M106.842 32.5075H112.815L105.349 69.8408H99.4819L92.0152 32.5075H97.9885L102.415 57.7342L106.842 32.5075Z" fill="white"/>
<path d="M131.008 63.9742H121.408V32.5075H115.541V69.8408H131.008V63.9742Z" fill="white"/>
<path d="M142.196 70.2675C144.756 70.2675 146.818 69.5386 148.382 68.0808C150.16 66.3742 151.049 64.0453 151.049 61.0942V56.2942H145.182V61.0942C145.182 62.4097 144.933 63.2986 144.436 63.7608C143.973 64.1875 143.227 64.4008 142.196 64.4008C141.2 64.4008 140.471 64.1875 140.009 63.7608C139.476 63.263 139.209 62.3742 139.209 61.0942V41.2541C139.209 39.9741 139.476 39.0853 140.009 38.5875C140.471 38.1608 141.2 37.9475 142.196 37.9475C143.227 37.9475 143.973 38.1608 144.436 38.5875C144.933 39.0497 145.182 39.9386 145.182 41.2541V44.5608H151.049V41.2541C151.049 38.303 150.16 35.9741 148.382 34.2675C146.818 32.8097 144.756 32.0808 142.196 32.0808C139.707 32.0808 137.645 32.8097 136.009 34.2675C134.231 36.0453 133.342 38.3741 133.342 41.2541V61.0942C133.342 63.9742 134.231 66.303 136.009 68.0808C137.645 69.5386 139.707 70.2675 142.196 70.2675Z" fill="white"/>
<path d="M163.081 70.2675C165.641 70.2675 167.703 69.5386 169.268 68.0808C171.046 66.3742 171.934 64.0453 171.934 61.0942V41.2541C171.934 38.303 171.046 35.9741 169.268 34.2675C167.703 32.8097 165.641 32.0808 163.081 32.0808C160.521 32.0808 158.459 32.8097 156.894 34.2675C155.117 35.9741 154.228 38.303 154.228 41.2541V61.0942C154.228 64.0453 155.117 66.3742 156.894 68.0808C158.459 69.5386 160.521 70.2675 163.081 70.2675ZM163.081 37.9475C164.112 37.9475 164.841 38.1608 165.268 38.5875C165.801 39.0497 166.068 39.9386 166.068 41.2541V61.0942C166.068 62.4097 165.801 63.2986 165.268 63.7608C164.841 64.1875 164.112 64.4008 163.081 64.4008C162.086 64.4008 161.357 64.1875 160.894 63.7608C160.361 63.263 160.094 62.3742 160.094 61.0942V41.2541C160.094 39.9741 160.361 39.0853 160.894 38.5875C161.357 38.1608 162.086 37.9475 163.081 37.9475Z" fill="white"/>
<path d="M183.697 70.2675C186.257 70.2675 188.32 69.5386 189.884 68.0808C191.662 66.3742 192.551 64.0453 192.551 61.0942V58.7475C192.551 55.3342 191.235 52.4542 188.604 50.1075C187.893 49.4675 186.613 48.6497 184.764 47.6542C183.733 47.0853 183.04 46.6586 182.684 46.3741C181.368 45.2008 180.711 43.7964 180.711 42.1608V41.2541C180.711 39.9741 180.977 39.0853 181.511 38.5875C181.973 38.1608 182.702 37.9475 183.697 37.9475C184.728 37.9475 185.457 38.1608 185.884 38.5875C186.417 39.0497 186.684 39.9386 186.684 41.2541V44.5075H192.551V41.2541C192.551 38.303 191.662 35.9741 189.884 34.2675C188.32 32.8097 186.257 32.0808 183.697 32.0808C181.137 32.0808 179.075 32.8097 177.511 34.2675C175.733 35.9741 174.844 38.303 174.844 41.2541V42.1608C174.844 43.8319 175.182 45.3964 175.857 46.8541C176.533 48.3119 177.511 49.6097 178.791 50.7475C179.573 51.423 180.8 52.2053 182.471 53.0942C183.68 53.7697 184.426 54.2319 184.711 54.4808C186.026 55.6897 186.684 57.1119 186.684 58.7475V61.0942C186.684 62.4097 186.417 63.2986 185.884 63.7608C185.457 64.1875 184.728 64.4008 183.697 64.4008C182.702 64.4008 181.973 64.1875 181.511 63.7608C180.977 63.263 180.711 62.3742 180.711 61.0942V56.2408H174.844V61.0942C174.844 64.0453 175.733 66.3742 177.511 68.0808C179.075 69.5386 181.137 70.2675 183.697 70.2675Z" fill="white"/>
<path d="M212.171 38.3741H206.198V69.8408H200.331V38.3741H194.358V32.5075H212.171V38.3741Z" fill="white"/>
<path d="M220.626 32.5075H214.76V69.8408H220.626V32.5075Z" fill="white"/>
<path d="M242.943 69.8408H239.529L230.569 50.9075V69.8408H224.703V32.5075H228.116L237.076 51.3875V32.5075H242.943V69.8408Z" fill="white"/>
<path d="M255.373 70.2675C257.933 70.2675 259.995 69.5386 261.559 68.0808C263.337 66.3742 264.226 64.0453 264.226 61.0942V48.2408H255.426V54.1075H258.359V61.0942C258.359 62.4097 258.111 63.2986 257.613 63.7608C257.151 64.1875 256.404 64.4008 255.373 64.4008C254.377 64.4008 253.648 64.1875 253.186 63.7608C252.653 63.263 252.386 62.3742 252.386 61.0942V41.2541C252.386 39.9741 252.653 39.0853 253.186 38.5875C253.648 38.1608 254.377 37.9475 255.373 37.9475C256.404 37.9475 257.151 38.1608 257.613 38.5875C258.111 39.0497 258.359 39.9386 258.359 41.2541V44.5608H264.226V41.2541C264.226 38.303 263.337 35.9741 261.559 34.2675C259.995 32.8097 257.933 32.0808 255.373 32.0808C252.884 32.0808 250.822 32.8097 249.186 34.2675C247.408 36.0453 246.519 38.3741 246.519 41.2541V61.0942C246.519 63.9742 247.408 66.303 249.186 68.0808C250.822 69.5386 252.884 70.2675 255.373 70.2675Z" fill="white"/>
<defs>
<linearGradient id="paint0_linear_179759_185908" x1="40.635" y1="76.7963" x2="40.2658" y2="7.76144" gradientUnits="userSpaceOnUse">
<stop offset="0.250503" stop-color="#FF9700"/>
<stop offset="0.751396" stop-color="#FF7519"/>
</linearGradient>
<linearGradient id="paint1_linear_179759_185908" x1="40.7399" y1="95.2604" x2="40.7113" y2="42.0802" gradientUnits="userSpaceOnUse">
<stop stop-color="#004AE7"/>
<stop offset="0.0723398" stop-color="#054FE9"/>
<stop offset="0.5228" stop-color="#1F6AF6"/>
<stop offset="0.7247" stop-color="#2974FB"/>
<stop offset="1" stop-color="#317CFF"/>
</linearGradient>
<linearGradient id="paint2_linear_179759_185908" x1="40.7399" y1="95.2604" x2="40.7113" y2="42.0802" gradientUnits="userSpaceOnUse">
<stop stop-color="#004AE7"/>
<stop offset="0.0723398" stop-color="#054FE9"/>
<stop offset="0.5228" stop-color="#1F6AF6"/>
<stop offset="0.7247" stop-color="#2974FB"/>
<stop offset="1" stop-color="#317CFF"/>
</linearGradient>
<linearGradient id="paint3_linear_179759_185908" x1="31.7049" y1="16.2453" x2="49.2131" y2="16.2453" gradientUnits="userSpaceOnUse">
<stop offset="0.0650528" stop-color="#FF7519"/>
<stop offset="0.0949166" stop-color="#FF7817"/>
<stop offset="0.3975" stop-color="#FF8F06"/>
<stop offset="0.5883" stop-color="#FF9700"/>
</linearGradient>
<linearGradient id="paint4_linear_179759_185908" x1="31.705" y1="33.5379" x2="49.2131" y2="33.5379" gradientUnits="userSpaceOnUse">
<stop offset="0.0650528" stop-color="#FF7519"/>
<stop offset="0.0949166" stop-color="#FF7817"/>
<stop offset="0.3975" stop-color="#FF8F06"/>
<stop offset="0.5883" stop-color="#FF9700"/>
</linearGradient>
<linearGradient id="paint5_linear_179759_185908" x1="40.459" y1="42.1842" x2="57.9671" y2="42.1842" gradientUnits="userSpaceOnUse">
<stop offset="0.0650528" stop-color="#FF7519"/>
<stop offset="0.0949166" stop-color="#FF7817"/>
<stop offset="0.3975" stop-color="#FF8F06"/>
<stop offset="0.5883" stop-color="#FF9700"/>
</linearGradient>
<linearGradient id="paint6_linear_179759_185908" x1="22.9508" y1="42.1842" x2="40.4589" y2="42.1842" gradientUnits="userSpaceOnUse">
<stop offset="0.0650528" stop-color="#FF7519"/>
<stop offset="0.0949166" stop-color="#FF7817"/>
<stop offset="0.3975" stop-color="#FF8F06"/>
<stop offset="0.5883" stop-color="#FF9700"/>
</linearGradient>
</defs>
</svg>
