<svg width="55" height="64" viewBox="0 0 55 64" fill="none" xmlns="http://www.w3.org/2000/svg">
<path d="M4.10425 28.0615L27.2408 4.92305L50.3773 28.0615L27.2408 51.2L4.10425 28.0615Z" fill="url(#paint0_linear_179759_185856)"/>
<path d="M27.2408 64L20.8413 57.6L27.2408 51.2L33.6402 57.6L27.2408 64ZM27.2408 51.2L21.8258 45.7846L15.4264 52.1846L20.8413 57.6L27.2408 51.2ZM21.8258 45.7846L15.9186 39.8769L9.51918 46.2769L15.4264 52.1846L21.8258 45.7846ZM15.9186 39.8769L10.0114 33.9692L3.61198 40.3692L9.51918 46.2769L15.9186 39.8769ZM10.0114 33.9692L4.10424 28.0615L2.62745 29.5384C-0.326216 32.4923 -0.818467 35.9385 2.13517 38.8923L3.61198 40.3692L10.0114 33.9692ZM44.9623 46.2769L38.5629 39.8769L32.6557 45.7846L39.0551 52.1846L44.9623 46.2769ZM50.8695 40.3692L44.4701 33.9692L38.5629 39.8769L44.9623 46.2769L50.8695 40.3692ZM52.3463 38.8923C55.2999 35.9385 54.8076 32.4923 51.8541 29.5384L50.3773 28.0615L44.4701 33.9692L50.8695 40.3692L52.3463 38.8923ZM39.0551 52.1846L32.6557 45.7846L27.2408 51.2L33.6402 57.6L39.0551 52.1846Z" fill="url(#paint1_linear_179759_185856)"/>
<path d="M27.2408 64L20.8413 57.6L27.2408 51.2L33.6402 57.6L27.2408 64ZM27.2408 51.2L21.8258 45.7846L15.4264 52.1846L20.8413 57.6L27.2408 51.2ZM21.8258 45.7846L15.9186 39.8769L9.51918 46.2769L15.4264 52.1846L21.8258 45.7846ZM15.9186 39.8769L10.0114 33.9692L3.61198 40.3692L9.51918 46.2769L15.9186 39.8769ZM10.0114 33.9692L4.10424 28.0615L2.62745 29.5384C-0.326216 32.4923 -0.818467 35.9385 2.13517 38.8923L3.61198 40.3692L10.0114 33.9692ZM44.9623 46.2769L38.5629 39.8769L32.6557 45.7846L39.0551 52.1846L44.9623 46.2769ZM50.8695 40.3692L44.4701 33.9692L38.5629 39.8769L44.9623 46.2769L50.8695 40.3692ZM52.3463 38.8923C55.2999 35.9385 54.8076 32.4923 51.8541 29.5384L50.3773 28.0615L44.4701 33.9692L50.8695 40.3692L52.3463 38.8923ZM39.0551 52.1846L32.6557 45.7846L27.2408 51.2L33.6402 57.6L39.0551 52.1846Z" fill="url(#paint2_linear_179759_185856)"/>
<path d="M27.2407 51.2L23.9127 47.918C22.4428 46.4684 22.4428 44.1163 23.9127 42.6667L27.2407 39.3846L30.5687 42.6667C32.0386 44.1163 32.0386 46.4684 30.5687 47.918L27.2407 51.2Z" fill="#FF3E5F"/>
<path d="M27.2407 15.7539L21.3335 9.84617L27.2407 3.93848L33.1479 9.84617L27.2407 15.7539Z" fill="url(#paint3_linear_179759_185856)"/>
<path d="M27.2407 27.5693L21.3335 21.6616L27.2407 15.7539L33.1479 21.6616L27.2407 27.5693Z" fill="url(#paint4_linear_179759_185856)"/>
<path d="M33.1479 33.477L27.2407 27.5693L33.1479 21.6616L39.0551 27.5693L33.1479 33.477Z" fill="url(#paint5_linear_179759_185856)"/>
<path d="M21.3335 33.477L15.4263 27.5693L21.3335 21.6616L27.2407 27.5693L21.3335 33.477Z" fill="url(#paint6_linear_179759_185856)"/>
<path d="M33.1479 21.6616L27.2407 15.7539L21.3335 21.6616L27.2407 27.5693L33.1479 21.6616Z" fill="#418DF9"/>
<path d="M33.1479 9.84618L27.2407 3.93848L21.3335 9.84617L27.2407 15.7539L33.1479 9.84618Z" fill="#1F6AF6"/>
<path d="M33.1479 33.4769L39.0552 39.3846V27.5692L33.1479 33.4769Z" fill="#1F6AF6"/>
<path d="M33.1479 33.4769L27.2407 27.5692L21.3335 33.4769L27.2407 39.3846L33.1479 33.4769Z" fill="#1F6AF6"/>
<path d="M27.2407 27.5693L21.3335 21.6616L15.4263 27.5693L21.3335 33.477L27.2407 27.5693Z" fill="#418DF9"/>
<path d="M39.0551 27.5693L33.1479 21.6616L27.2408 27.5693L33.1479 33.4771L39.0551 27.5693Z" fill="#418DF9"/>
<path d="M27.2417 15.7547L33.1445 21.6614L33.1479 9.84607L27.2417 15.7547Z" fill="#317CFF"/>
<path d="M15.4264 27.5691V39.3845L21.3336 33.4768L15.4264 27.5691Z" fill="#1F6AF6"/>
<path d="M27.2407 15.7538L21.3335 9.84607V21.6615L27.2407 15.7538Z" fill="#317CFF"/>
<path d="M27.2407 27.5693L33.1479 33.477V21.6616L27.2407 27.5693Z" fill="#317CFF"/>
<path d="M27.2407 27.5693L21.3335 21.6616V33.477L27.2407 27.5693Z" fill="#317CFF"/>
<path d="M27.2407 11.3231L21.3335 5.41539L26.6024 0.263419C26.9582 -0.0878065 27.5603 -0.0878065 27.9161 0.263419L33.1479 5.41539L27.2407 11.3231Z" fill="#1F6AF6"/>
<path d="M21.3335 5.41541H33.1479V9.84618H21.3335V5.41541Z" fill="#1F6AF6"/>
<defs>
<linearGradient id="paint0_linear_179759_185856" x1="27.2408" y1="51.1975" x2="26.9946" y2="5.17429" gradientUnits="userSpaceOnUse">
<stop offset="0.250503" stop-color="#FF9700"/>
<stop offset="0.751396" stop-color="#FF7519"/>
</linearGradient>
<linearGradient id="paint1_linear_179759_185856" x1="27.3107" y1="63.5069" x2="27.2916" y2="28.0535" gradientUnits="userSpaceOnUse">
<stop stop-color="#004AE7"/>
<stop offset="0.0723398" stop-color="#054FE9"/>
<stop offset="0.5228" stop-color="#1F6AF6"/>
<stop offset="0.7247" stop-color="#2974FB"/>
<stop offset="1" stop-color="#317CFF"/>
</linearGradient>
<linearGradient id="paint2_linear_179759_185856" x1="27.3107" y1="63.5069" x2="27.2916" y2="28.0535" gradientUnits="userSpaceOnUse">
<stop stop-color="#004AE7"/>
<stop offset="0.0723398" stop-color="#054FE9"/>
<stop offset="0.5228" stop-color="#1F6AF6"/>
<stop offset="0.7247" stop-color="#2974FB"/>
<stop offset="1" stop-color="#317CFF"/>
</linearGradient>
<linearGradient id="paint3_linear_179759_185856" x1="21.2873" y1="10.8302" x2="32.9594" y2="10.8302" gradientUnits="userSpaceOnUse">
<stop offset="0.0650528" stop-color="#FF7519"/>
<stop offset="0.0949166" stop-color="#FF7817"/>
<stop offset="0.3975" stop-color="#FF8F06"/>
<stop offset="0.5883" stop-color="#FF9700"/>
</linearGradient>
<linearGradient id="paint4_linear_179759_185856" x1="21.2874" y1="22.3586" x2="32.9594" y2="22.3586" gradientUnits="userSpaceOnUse">
<stop offset="0.0650528" stop-color="#FF7519"/>
<stop offset="0.0949166" stop-color="#FF7817"/>
<stop offset="0.3975" stop-color="#FF8F06"/>
<stop offset="0.5883" stop-color="#FF9700"/>
</linearGradient>
<linearGradient id="paint5_linear_179759_185856" x1="27.1234" y1="28.1228" x2="38.7955" y2="28.1228" gradientUnits="userSpaceOnUse">
<stop offset="0.0650528" stop-color="#FF7519"/>
<stop offset="0.0949166" stop-color="#FF7817"/>
<stop offset="0.3975" stop-color="#FF8F06"/>
<stop offset="0.5883" stop-color="#FF9700"/>
</linearGradient>
<linearGradient id="paint6_linear_179759_185856" x1="15.4512" y1="28.1228" x2="27.1233" y2="28.1228" gradientUnits="userSpaceOnUse">
<stop offset="0.0650528" stop-color="#FF7519"/>
<stop offset="0.0949166" stop-color="#FF7817"/>
<stop offset="0.3975" stop-color="#FF8F06"/>
<stop offset="0.5883" stop-color="#FF9700"/>
</linearGradient>
</defs>
</svg>
