<svg width="89" height="32" viewBox="0 0 89 32" fill="none" xmlns="http://www.w3.org/2000/svg">
<path d="M1.97675 14.0308L13.545 2.46152L25.1133 14.0308L13.545 25.6L1.97675 14.0308Z" fill="url(#paint0_linear_179759_185986)"/>
<path d="M13.545 32L10.3453 28.8L13.545 25.6L16.7447 28.8L13.545 32ZM13.545 25.6L10.8375 22.8923L7.63781 26.0923L10.3453 28.8L13.545 25.6ZM10.8375 22.8923L7.88394 19.9385L4.68421 23.1385L7.63781 26.0923L10.8375 22.8923ZM7.88394 19.9385L4.93034 16.9846L1.73061 20.1846L4.68421 23.1385L7.88394 19.9385ZM4.93034 16.9846L1.97674 14.0308L1.23835 14.7692C-0.238487 16.2461 -0.484612 17.9692 0.992206 19.4461L1.73061 20.1846L4.93034 16.9846ZM22.4058 23.1385L19.2061 19.9385L16.2525 22.8923L19.4522 26.0923L22.4058 23.1385ZM25.3594 20.1846L22.1597 16.9846L19.2061 19.9385L22.4058 23.1385L25.3594 20.1846ZM26.0978 19.4461C27.5746 17.9692 27.3284 16.2461 25.8517 14.7692L25.1133 14.0308L22.1597 16.9846L25.3594 20.1846L26.0978 19.4461ZM19.4522 26.0923L16.2525 22.8923L13.545 25.6L16.7447 28.8L19.4522 26.0923Z" fill="url(#paint1_linear_179759_185986)"/>
<path d="M13.545 32L10.3453 28.8L13.545 25.6L16.7447 28.8L13.545 32ZM13.545 25.6L10.8375 22.8923L7.63781 26.0923L10.3453 28.8L13.545 25.6ZM10.8375 22.8923L7.88394 19.9385L4.68421 23.1385L7.63781 26.0923L10.8375 22.8923ZM7.88394 19.9385L4.93034 16.9846L1.73061 20.1846L4.68421 23.1385L7.88394 19.9385ZM4.93034 16.9846L1.97674 14.0308L1.23835 14.7692C-0.238487 16.2461 -0.484612 17.9692 0.992206 19.4461L1.73061 20.1846L4.93034 16.9846ZM22.4058 23.1385L19.2061 19.9385L16.2525 22.8923L19.4522 26.0923L22.4058 23.1385ZM25.3594 20.1846L22.1597 16.9846L19.2061 19.9385L22.4058 23.1385L25.3594 20.1846ZM26.0978 19.4461C27.5746 17.9692 27.3284 16.2461 25.8517 14.7692L25.1133 14.0308L22.1597 16.9846L25.3594 20.1846L26.0978 19.4461ZM19.4522 26.0923L16.2525 22.8923L13.545 25.6L16.7447 28.8L19.4522 26.0923Z" fill="url(#paint2_linear_179759_185986)"/>
<path d="M13.545 25.6001L11.881 23.9591C11.146 23.2343 11.146 22.0582 11.881 21.3334L13.545 19.6924L15.209 21.3334C15.9439 22.0582 15.9439 23.2343 15.209 23.9591L13.545 25.6001Z" fill="#FF3E5F"/>
<path d="M13.545 7.87693L10.5914 4.92309L13.545 1.96924L16.4986 4.92309L13.545 7.87693Z" fill="url(#paint3_linear_179759_185986)"/>
<path d="M13.545 13.7846L10.5914 10.8308L13.545 7.87695L16.4986 10.8308L13.545 13.7846Z" fill="url(#paint4_linear_179759_185986)"/>
<path d="M16.4986 16.7385L13.545 13.7847L16.4986 10.8308L19.4522 13.7847L16.4986 16.7385Z" fill="url(#paint5_linear_179759_185986)"/>
<path d="M10.5914 16.7385L7.63776 13.7847L10.5914 10.8308L13.545 13.7847L10.5914 16.7385Z" fill="url(#paint6_linear_179759_185986)"/>
<path d="M16.4986 10.8308L13.545 7.87695L10.5914 10.8308L13.545 13.7847L16.4986 10.8308Z" fill="#418DF9"/>
<path d="M16.4986 4.92309L13.545 1.96924L10.5914 4.92309L13.545 7.87693L16.4986 4.92309Z" fill="#1F6AF6"/>
<path d="M16.4986 16.7385L19.4522 19.6924V13.7847L16.4986 16.7385Z" fill="#1F6AF6"/>
<path d="M16.4986 16.7385L13.545 13.7847L10.5914 16.7385L13.545 19.6924L16.4986 16.7385Z" fill="#1F6AF6"/>
<path d="M13.545 13.7847L10.5914 10.8308L7.63777 13.7847L10.5914 16.7385L13.545 13.7847Z" fill="#418DF9"/>
<path d="M19.4522 13.7847L16.4986 10.8308L13.545 13.7847L16.4986 16.7385L19.4522 13.7847Z" fill="#418DF9"/>
<path d="M13.5455 7.87741L16.4969 10.8308L16.4986 4.9231L13.5455 7.87741Z" fill="#317CFF"/>
<path d="M7.63782 13.7845V19.6923L10.5914 16.7384L7.63782 13.7845Z" fill="#1F6AF6"/>
<path d="M13.545 7.87694L10.5914 4.9231V10.8308L13.545 7.87694Z" fill="#317CFF"/>
<path d="M13.545 13.7847L16.4986 16.7385V10.8308L13.545 13.7847Z" fill="#317CFF"/>
<path d="M13.545 13.7847L10.5914 10.8308V16.7385L13.545 13.7847Z" fill="#317CFF"/>
<path d="M13.545 5.66154L10.5914 2.70769L13.2258 0.13171C13.4037 -0.0439032 13.7048 -0.0439032 13.8826 0.13171L16.4986 2.70769L13.545 5.66154Z" fill="#1F6AF6"/>
<path d="M10.5914 2.70776H16.4986V4.92315H10.5914V2.70776Z" fill="#1F6AF6"/>
<path d="M35.614 10.8358H37.6051L35.1162 23.2803H33.1606L30.6718 10.8358H32.6629L34.1384 19.2447L35.614 10.8358Z" fill="white"/>
<path d="M43.6693 21.3247H40.4693V10.8358H38.5137V23.2803H43.6693V21.3247Z" fill="white"/>
<path d="M47.3986 23.4225C48.2519 23.4225 48.9393 23.1795 49.4608 22.6936C50.0534 22.1247 50.3497 21.3484 50.3497 20.3647V18.7647H48.3941V20.3647C48.3941 20.8032 48.3112 21.0995 48.1452 21.2536C47.9912 21.3958 47.7423 21.4669 47.3986 21.4669C47.0667 21.4669 46.8238 21.3958 46.6697 21.2536C46.4919 21.0877 46.403 20.7914 46.403 20.3647V13.7514C46.403 13.3247 46.4919 13.0284 46.6697 12.8625C46.8238 12.7203 47.0667 12.6492 47.3986 12.6492C47.7423 12.6492 47.9912 12.7203 48.1452 12.8625C48.3112 13.0166 48.3941 13.3129 48.3941 13.7514V14.8536H50.3497V13.7514C50.3497 12.7677 50.0534 11.9914 49.4608 11.4225C48.9393 10.9366 48.2519 10.6936 47.3986 10.6936C46.5689 10.6936 45.8815 10.9366 45.3363 11.4225C44.7437 12.0151 44.4475 12.7914 44.4475 13.7514V20.3647C44.4475 21.3247 44.7437 22.101 45.3363 22.6936C45.8815 23.1795 46.5689 23.4225 47.3986 23.4225Z" fill="white"/>
<path d="M54.3604 23.4225C55.2137 23.4225 55.9011 23.1795 56.4226 22.6936C57.0152 22.1247 57.3115 21.3484 57.3115 20.3647V13.7514C57.3115 12.7677 57.0152 11.9914 56.4226 11.4225C55.9011 10.9366 55.2137 10.6936 54.3604 10.6936C53.507 10.6936 52.8196 10.9366 52.2982 11.4225C51.7056 11.9914 51.4093 12.7677 51.4093 13.7514V20.3647C51.4093 21.3484 51.7056 22.1247 52.2982 22.6936C52.8196 23.1795 53.507 23.4225 54.3604 23.4225ZM54.3604 12.6492C54.7041 12.6492 54.947 12.7203 55.0893 12.8625C55.267 13.0166 55.3559 13.3129 55.3559 13.7514V20.3647C55.3559 20.8032 55.267 21.0995 55.0893 21.2536C54.947 21.3958 54.7041 21.4669 54.3604 21.4669C54.0285 21.4669 53.7856 21.3958 53.6315 21.2536C53.4537 21.0877 53.3648 20.7914 53.3648 20.3647V13.7514C53.3648 13.3247 53.4537 13.0284 53.6315 12.8625C53.7856 12.7203 54.0285 12.6492 54.3604 12.6492Z" fill="white"/>
<path d="M61.2325 23.4225C62.0858 23.4225 62.7732 23.1795 63.2947 22.6936C63.8873 22.1247 64.1836 21.3484 64.1836 20.3647V19.5825C64.1836 18.4447 63.7451 17.4847 62.868 16.7025C62.631 16.4892 62.2043 16.2166 61.588 15.8847C61.2443 15.6951 61.0132 15.5529 60.8947 15.458C60.4562 15.0669 60.2369 14.5988 60.2369 14.0536V13.7514C60.2369 13.3247 60.3258 13.0284 60.5036 12.8625C60.6576 12.7203 60.9006 12.6492 61.2325 12.6492C61.5762 12.6492 61.8191 12.7203 61.9613 12.8625C62.1391 13.0166 62.228 13.3129 62.228 13.7514V14.8358H64.1836V13.7514C64.1836 12.7677 63.8873 11.9914 63.2947 11.4225C62.7732 10.9366 62.0858 10.6936 61.2325 10.6936C60.3791 10.6936 59.6917 10.9366 59.1702 11.4225C58.5776 11.9914 58.2813 12.7677 58.2813 13.7514V14.0536C58.2813 14.6106 58.3939 15.1321 58.6191 15.618C58.8443 16.104 59.1702 16.5366 59.5969 16.9158C59.8576 17.141 60.2665 17.4018 60.8236 17.6981C61.2265 17.9232 61.4754 18.0773 61.5702 18.1603C62.0088 18.5632 62.228 19.0373 62.228 19.5825V20.3647C62.228 20.8032 62.1391 21.0995 61.9613 21.2536C61.8191 21.3958 61.5762 21.4669 61.2325 21.4669C60.9006 21.4669 60.6576 21.3958 60.5036 21.2536C60.3258 21.0877 60.2369 20.7914 60.2369 20.3647V18.7469H58.2813V20.3647C58.2813 21.3484 58.5776 22.1247 59.1702 22.6936C59.6917 23.1795 60.3791 23.4225 61.2325 23.4225Z" fill="white"/>
<path d="M70.7237 12.7914H68.7326V23.2803H66.7771V12.7914H64.7859V10.8358H70.7237V12.7914Z" fill="white"/>
<path d="M73.5422 10.8358H71.5866V23.2803H73.5422V10.8358Z" fill="white"/>
<path d="M80.9809 23.2803H79.8432L76.8565 16.9692V23.2803H74.9009V10.8358H76.0387L79.0254 17.1292V10.8358H80.9809V23.2803Z" fill="white"/>
<path d="M85.1243 23.4225C85.9776 23.4225 86.665 23.1795 87.1865 22.6936C87.7791 22.1247 88.0754 21.3484 88.0754 20.3647V16.0803H85.1421V18.0358H86.1198V20.3647C86.1198 20.8032 86.0369 21.0995 85.8709 21.2536C85.7169 21.3958 85.468 21.4669 85.1243 21.4669C84.7924 21.4669 84.5495 21.3958 84.3954 21.2536C84.2176 21.0877 84.1287 20.7914 84.1287 20.3647V13.7514C84.1287 13.3247 84.2176 13.0284 84.3954 12.8625C84.5495 12.7203 84.7924 12.6492 85.1243 12.6492C85.468 12.6492 85.7169 12.7203 85.8709 12.8625C86.0369 13.0166 86.1198 13.3129 86.1198 13.7514V14.8536H88.0754V13.7514C88.0754 12.7677 87.7791 11.9914 87.1865 11.4225C86.665 10.9366 85.9776 10.6936 85.1243 10.6936C84.2946 10.6936 83.6072 10.9366 83.0621 11.4225C82.4695 12.0151 82.1732 12.7914 82.1732 13.7514V20.3647C82.1732 21.3247 82.4695 22.101 83.0621 22.6936C83.6072 23.1795 84.2946 23.4225 85.1243 23.4225Z" fill="white"/>
<defs>
<linearGradient id="paint0_linear_179759_185986" x1="13.545" y1="25.5988" x2="13.4219" y2="2.58715" gradientUnits="userSpaceOnUse">
<stop offset="0.250503" stop-color="#FF9700"/>
<stop offset="0.751396" stop-color="#FF7519"/>
</linearGradient>
<linearGradient id="paint1_linear_179759_185986" x1="13.5799" y1="31.7535" x2="13.5704" y2="14.0267" gradientUnits="userSpaceOnUse">
<stop stop-color="#004AE7"/>
<stop offset="0.0723398" stop-color="#054FE9"/>
<stop offset="0.5228" stop-color="#1F6AF6"/>
<stop offset="0.7247" stop-color="#2974FB"/>
<stop offset="1" stop-color="#317CFF"/>
</linearGradient>
<linearGradient id="paint2_linear_179759_185986" x1="13.5799" y1="31.7535" x2="13.5704" y2="14.0267" gradientUnits="userSpaceOnUse">
<stop stop-color="#004AE7"/>
<stop offset="0.0723398" stop-color="#054FE9"/>
<stop offset="0.5228" stop-color="#1F6AF6"/>
<stop offset="0.7247" stop-color="#2974FB"/>
<stop offset="1" stop-color="#317CFF"/>
</linearGradient>
<linearGradient id="paint3_linear_179759_185986" x1="10.5683" y1="5.4151" x2="16.4043" y2="5.4151" gradientUnits="userSpaceOnUse">
<stop offset="0.0650528" stop-color="#FF7519"/>
<stop offset="0.0949166" stop-color="#FF7817"/>
<stop offset="0.3975" stop-color="#FF8F06"/>
<stop offset="0.5883" stop-color="#FF9700"/>
</linearGradient>
<linearGradient id="paint4_linear_179759_185986" x1="10.5683" y1="11.1793" x2="16.4043" y2="11.1793" gradientUnits="userSpaceOnUse">
<stop offset="0.0650528" stop-color="#FF7519"/>
<stop offset="0.0949166" stop-color="#FF7817"/>
<stop offset="0.3975" stop-color="#FF8F06"/>
<stop offset="0.5883" stop-color="#FF9700"/>
</linearGradient>
<linearGradient id="paint5_linear_179759_185986" x1="13.4863" y1="14.0614" x2="19.3223" y2="14.0614" gradientUnits="userSpaceOnUse">
<stop offset="0.0650528" stop-color="#FF7519"/>
<stop offset="0.0949166" stop-color="#FF7817"/>
<stop offset="0.3975" stop-color="#FF8F06"/>
<stop offset="0.5883" stop-color="#FF9700"/>
</linearGradient>
<linearGradient id="paint6_linear_179759_185986" x1="7.65022" y1="14.0614" x2="13.4863" y2="14.0614" gradientUnits="userSpaceOnUse">
<stop offset="0.0650528" stop-color="#FF7519"/>
<stop offset="0.0949166" stop-color="#FF7817"/>
<stop offset="0.3975" stop-color="#FF8F06"/>
<stop offset="0.5883" stop-color="#FF9700"/>
</linearGradient>
</defs>
</svg>
