<svg width="64" height="65" viewBox="0 0 64 65" fill="none" xmlns="http://www.w3.org/2000/svg">
<path d="M4 56C4 56.5625 4.10417 57.0833 4.3125 57.5625C4.52083 58.0417 4.80208 58.4583 5.15625 58.8125C5.51042 59.1667 5.9375 59.4583 6.4375 59.6875C6.9375 59.9167 7.45833 60.0208 8 60H28L36.0312 64H8C6.89583 64 5.86458 63.7917 4.90625 63.375C3.94792 62.9583 3.09375 62.3854 2.34375 61.6562C1.59375 60.9271 1.02083 60.0833 0.625 59.125C0.229167 58.1667 0.0208333 57.125 0 56V8C0 6.97917 0.21875 5.98958 0.65625 5.03125C1.09375 4.07292 1.6875 3.21875 2.4375 2.46875C3.1875 1.71875 4.04167 1.125 5 0.6875C5.95833 0.25 6.95833 0.0208333 8 0H52V21.2812L48 19.2812V4H8C7.52083 4 7.04167 4.11458 6.5625 4.34375C6.08333 4.57292 5.65625 4.88542 5.28125 5.28125C4.90625 5.67708 4.60417 6.10417 4.375 6.5625C4.14583 7.02083 4.02083 7.5 4 8V49.125C4.60417 48.7708 5.23958 48.5 5.90625 48.3125C6.57292 48.125 7.27083 48.0208 8 48H24V52H8C7.4375 52 6.91667 52.1042 6.4375 52.3125C5.95833 52.5208 5.54167 52.8021 5.1875 53.1562C4.83333 53.5104 4.54167 53.9375 4.3125 54.4375C4.08333 54.9375 3.97917 55.4583 4 56ZM64 31.7188V55.5312L46 64.5L28 55.5312V31.7188L46 22.75L64 31.7188ZM46 27.2188L34.4688 32.9688L46 38.7188L57.5312 32.9688L46 27.2188ZM32 53.0625L44 59.0312V42.1875L32 36.1875V53.0625ZM60 53.0625V36.1875L48 42.1875V59.0312L60 53.0625Z" fill="black" fill-opacity="0.85"/>
</svg>
