<svg width="64" height="64" viewBox="0 0 64 64" fill="none" xmlns="http://www.w3.org/2000/svg">
<path d="M16.9876 13.037C16.359 13.037 15.756 13.2867 15.3115 13.7313C14.867 14.1758 14.6172 14.7787 14.6172 15.4074V39.1111C14.6172 39.7397 14.867 40.3426 15.3115 40.7872C15.756 41.2317 16.359 41.4814 16.9876 41.4814C17.6163 41.4814 18.2192 41.2317 18.6637 40.7872C19.1082 40.3426 19.358 39.7397 19.358 39.1111V15.4074C19.358 14.7787 19.1082 14.1758 18.6637 13.7313C18.2192 13.2867 17.6163 13.037 16.9876 13.037ZM32 13.037C31.3713 13.037 30.7684 13.2867 30.3239 13.7313C29.8793 14.1758 29.6296 14.7787 29.6296 15.4074V29.6296C29.6296 30.2583 29.8793 30.8612 30.3239 31.3057C30.7684 31.7502 31.3713 32 32 32C32.6286 32 33.2315 31.7502 33.6761 31.3057C34.1206 30.8612 34.3703 30.2583 34.3703 29.6296V15.4074C34.3703 14.7787 34.1206 14.1758 33.6761 13.7313C33.2315 13.2867 32.6286 13.037 32 13.037ZM44.6419 15.4074C44.6419 14.7787 44.8917 14.1758 45.3362 13.7313C45.7807 13.2867 46.3836 13.037 47.0123 13.037C47.641 13.037 48.2439 13.2867 48.6884 13.7313C49.1329 14.1758 49.3827 14.7787 49.3827 15.4074V45.4321C49.3827 46.0607 49.1329 46.6636 48.6884 47.1082C48.2439 47.5527 47.641 47.8024 47.0123 47.8024C46.3836 47.8024 45.7807 47.5527 45.3362 47.1082C44.8917 46.6636 44.6419 46.0607 44.6419 45.4321V15.4074Z" fill="black" fill-opacity="0.85"/>
<path fill-rule="evenodd" clip-rule="evenodd" d="M5.92588 0.39502C4.45901 0.39502 3.05221 0.977734 2.01497 2.01497C0.977734 3.05221 0.39502 4.45901 0.39502 5.92588V58.074C0.39502 61.1271 2.87285 63.6049 5.92588 63.6049H58.074C59.5409 63.6049 60.9477 63.0222 61.9849 61.9849C63.0222 60.9477 63.6049 59.5409 63.6049 58.074V5.92588C63.6049 4.45901 63.0222 3.05221 61.9849 2.01497C60.9477 0.977734 59.5409 0.39502 58.074 0.39502H5.92588ZM5.13576 5.92588C5.13576 5.71633 5.21901 5.51536 5.36718 5.36718C5.51536 5.21901 5.71633 5.13576 5.92588 5.13576H58.074C58.2836 5.13576 58.4846 5.21901 58.6327 5.36718C58.7809 5.51536 58.8642 5.71633 58.8642 5.92588V58.074C58.8642 58.2836 58.7809 58.4846 58.6327 58.6327C58.4846 58.7809 58.2836 58.8642 58.074 58.8642H5.92588C5.71633 58.8642 5.51536 58.7809 5.36718 58.6327C5.21901 58.4846 5.13576 58.2836 5.13576 58.074V5.92588Z" fill="black" fill-opacity="0.85"/>
</svg>
