<svg width="64" height="64" viewBox="0 0 64 64" fill="none" xmlns="http://www.w3.org/2000/svg">
<g clip-path="url(#clip0_179895_172676)">
<path d="M45.6583 17.3211V13.7982C45.6583 13.4752 45.3941 13.211 45.0711 13.211H16.8877C16.5647 13.211 16.3005 13.4752 16.3005 13.7982V17.3211C16.3005 17.644 16.5647 17.9083 16.8877 17.9083H45.0711C45.3941 17.9083 45.6583 17.644 45.6583 17.3211ZM16.8877 23.7798C16.5647 23.7798 16.3005 24.044 16.3005 24.367V27.8899C16.3005 28.2128 16.5647 28.4771 16.8877 28.4771H30.3922C30.7152 28.4771 30.9794 28.2128 30.9794 27.8899V24.367C30.9794 24.044 30.7152 23.7798 30.3922 23.7798H16.8877ZM27.4565 56.9541H10.4289V5.2844H51.5299V30.5321C51.5299 30.855 51.7941 31.1193 52.117 31.1193H56.2271C56.55 31.1193 56.8143 30.855 56.8143 30.5321V2.34862C56.8143 1.04954 55.7647 0 54.4656 0H7.49316C6.19407 0 5.14453 1.04954 5.14453 2.34862V59.8899C5.14453 61.189 6.19407 62.2385 7.49316 62.2385H27.4565C27.7794 62.2385 28.0436 61.9743 28.0436 61.6514V57.5413C28.0436 57.2183 27.7794 56.9541 27.4565 56.9541Z" fill="black" fill-opacity="0.85"/>
<path d="M44.8 32C35.9643 32 28.8 39.1643 28.8 48C28.8 56.8357 35.9643 64 44.8 64C53.6357 64 60.8 56.8357 60.8 48C60.8 39.1643 53.6357 32 44.8 32ZM45.5964 55.7571L45.6036 56.8893C45.6036 57.0464 45.475 57.1786 45.3179 57.1786H44.3036C44.1464 57.1786 44.0179 57.05 44.0179 56.8929V55.7714C40.8464 55.5357 39.3536 53.7286 39.1929 51.7643C39.1786 51.5964 39.3107 51.4536 39.4786 51.4536H41.1286C41.2679 51.4536 41.3893 51.5536 41.4107 51.6893C41.5929 52.8214 42.475 53.6679 44.0571 53.8786V48.7821L43.175 48.5571C41.3071 48.1107 39.5286 46.9464 39.5286 44.5321C39.5286 41.9286 41.5071 40.5286 44.0357 40.2821V39.1036C44.0357 38.9464 44.1643 38.8179 44.3214 38.8179H45.325C45.4821 38.8179 45.6107 38.9464 45.6107 39.1036V40.2714C48.0571 40.5179 49.8929 41.9464 50.1071 44.1714C50.125 44.3393 49.9929 44.4857 49.8214 44.4857H48.2179C48.075 44.4857 47.9536 44.3786 47.9357 44.2393C47.7929 43.1964 46.9571 42.3464 45.5964 42.1607V46.9571L46.5036 47.1679C48.8179 47.7393 50.3929 48.8464 50.3929 51.325C50.3929 54.0143 48.3929 55.5143 45.5964 55.7571ZM41.75 44.3679C41.75 45.275 42.3107 45.9786 43.5179 46.4143C43.6857 46.4821 43.8536 46.5357 44.0536 46.5929V42.1643C42.7357 42.3321 41.75 43.0714 41.75 44.3679ZM45.9107 49.1964C45.8107 49.175 45.7107 49.15 45.5964 49.1179V53.8929C47.1179 53.7571 48.1679 52.9214 48.1679 51.5214C48.1679 50.425 47.6 49.7107 45.9107 49.1964Z" fill="black" fill-opacity="0.85"/>
</g>
<defs>
<clipPath id="clip0_179895_172676">
<rect width="64" height="64" fill="white"/>
</clipPath>
</defs>
</svg>
