<svg width="64" height="64" viewBox="0 0 64 64" fill="none" xmlns="http://www.w3.org/2000/svg">
<path d="M41.1429 45.7143V59.4286H4.57143V4.57143H27.4286V0H4.57143C3.35901 0 2.19625 0.481631 1.33894 1.33894C0.481631 2.19625 0 3.35901 0 4.57143V59.4286C0 60.641 0.481631 61.8038 1.33894 62.6611C2.19625 63.5184 3.35901 64 4.57143 64H41.1429C42.3553 64 43.518 63.5184 44.3753 62.6611C45.2327 61.8038 45.7143 60.641 45.7143 59.4286V45.7143H41.1429Z" fill="black" fill-opacity="0.85"/>
<path d="M62.6629 8.58828L55.12 1.04542C54.4364 0.375333 53.5173 0 52.56 0C51.6027 0 50.6836 0.375333 50 1.04542L18 33.0454V45.7083H30.64L62.64 13.7083C63.3101 13.0247 63.6854 12.1055 63.6854 11.1483C63.6854 10.191 63.3101 9.2719 62.64 8.58828H62.6629ZM28.7429 41.1369H22.5714V34.9654L44.1486 13.3654L50.3429 19.5597L28.7429 41.1369ZM53.5657 16.3368L47.3714 10.1426L52.56 4.95399L58.7543 11.1483L53.5657 16.3368Z" fill="black" fill-opacity="0.85"/>
</svg>
