<svg width="64" height="64" viewBox="0 0 64 64" fill="none" xmlns="http://www.w3.org/2000/svg">
<g clip-path="url(#clip0_179888_172635)">
<path d="M61.4849 40.1319L56.8064 36.1319C57.0278 34.7748 57.1421 33.389 57.1421 32.0033C57.1421 30.6176 57.0278 29.2319 56.8064 27.8748L61.4849 23.8748C61.8378 23.5727 62.0904 23.1703 62.2091 22.7212C62.3277 22.2721 62.3069 21.7974 62.1492 21.3605L62.0849 21.1748C60.7969 17.5749 58.8683 14.2379 56.3921 11.3248L56.2635 11.1748C55.9631 10.8216 55.5628 10.5677 55.1152 10.4465C54.6677 10.3254 54.1939 10.3427 53.7564 10.4962L47.9492 12.5605C45.8064 10.8033 43.4135 9.41761 40.8278 8.44619L39.7064 2.37476C39.6218 1.91791 39.4002 1.49763 39.071 1.16974C38.7418 0.84185 38.3207 0.621875 37.8635 0.539042L37.6707 0.503327C33.9492 -0.168101 30.0349 -0.168101 26.3135 0.503327L26.1207 0.539042C25.6635 0.621875 25.2424 0.84185 24.9132 1.16974C24.584 1.49763 24.3624 1.91791 24.2778 2.37476L23.1492 8.47476C20.5842 9.44639 18.1954 10.8314 16.0778 12.5748L10.2278 10.4962C9.79042 10.3415 9.31631 10.3235 8.86848 10.4448C8.42066 10.566 8.02032 10.8206 7.72066 11.1748L7.59209 11.3248C5.11885 14.2399 3.19049 17.5765 1.89923 21.1748L1.83495 21.3605C1.51352 22.2533 1.7778 23.2533 2.49923 23.8748L7.23495 27.9176C7.01352 29.2605 6.90638 30.6319 6.90638 31.9962C6.90638 33.3676 7.01352 34.739 7.23495 36.0748L2.49923 40.1176C2.14635 40.4197 1.89378 40.8221 1.77512 41.2712C1.65646 41.7203 1.67733 42.1949 1.83495 42.6319L1.89923 42.8176C3.19209 46.4176 5.10638 49.739 7.59209 52.6676L7.72066 52.8176C8.02105 53.1708 8.4214 53.4247 8.86896 53.5458C9.31652 53.667 9.79028 53.6497 10.2278 53.4962L16.0778 51.4176C18.2064 53.1676 20.5849 54.5533 23.1492 55.5176L24.2778 61.6176C24.3624 62.0745 24.584 62.4947 24.9132 62.8226C25.2424 63.1505 25.6635 63.3705 26.1207 63.4533L26.3135 63.489C30.0691 64.1641 33.915 64.1641 37.6707 63.489L37.8635 63.4533C38.3207 63.3705 38.7418 63.1505 39.071 62.8226C39.4002 62.4947 39.6218 62.0745 39.7064 61.6176L40.8278 55.5462C43.4125 54.5773 45.8188 53.1871 47.9492 51.4319L53.7564 53.4962C54.1938 53.6509 54.6679 53.6688 55.1157 53.5476C55.5635 53.4264 55.9639 53.1718 56.2635 52.8176L56.3921 52.6676C58.8778 49.7319 60.7921 46.4176 62.0849 42.8176L62.1492 42.6319C62.4707 41.7533 62.2064 40.7533 61.4849 40.1319ZM51.7349 28.7176C51.9135 29.7962 52.0064 30.9033 52.0064 32.0105C52.0064 33.1176 51.9135 34.2248 51.7349 35.3033L51.2635 38.1676L56.5992 42.7319C55.7903 44.5954 54.7693 46.3594 53.5564 47.989L46.9278 45.639L44.6849 47.4819C42.9778 48.8819 41.0778 49.9819 39.0207 50.7533L36.2992 51.7748L35.0207 58.7033C33.0033 58.9319 30.9666 58.9319 28.9492 58.7033L27.6707 51.7605L24.9707 50.7248C22.9349 49.9533 21.0421 48.8533 19.3492 47.4605L17.1064 45.6105L10.4349 47.9819C9.22066 46.3462 8.20638 44.5819 7.39209 42.7248L12.7849 38.1176L12.3207 35.2605C12.1492 34.1962 12.0564 33.0962 12.0564 32.0105C12.0564 30.9176 12.1421 29.8248 12.3207 28.7605L12.7849 25.9033L7.39209 21.2962C8.19923 19.4319 9.22066 17.6748 10.4349 16.039L17.1064 18.4105L19.3492 16.5605C21.0421 15.1676 22.9349 14.0676 24.9707 13.2962L27.6778 12.2748L28.9564 5.3319C30.9635 5.10333 33.0135 5.10333 35.0278 5.3319L36.3064 12.2605L39.0278 13.2819C41.0778 14.0533 42.9849 15.1533 44.6921 16.5533L46.9349 18.3962L53.5635 16.0462C54.7778 17.6819 55.7921 19.4462 56.6064 21.3033L51.2707 25.8676L51.7349 28.7176ZM31.9992 18.7248C25.0564 18.7248 19.4278 24.3533 19.4278 31.2962C19.4278 38.239 25.0564 43.8676 31.9992 43.8676C38.9421 43.8676 44.5707 38.239 44.5707 31.2962C44.5707 24.3533 38.9421 18.7248 31.9992 18.7248ZM37.6564 36.9533C36.9144 37.6974 36.0326 38.2875 35.0617 38.6896C34.0909 39.0917 33.0501 39.2978 31.9992 39.2962C29.8635 39.2962 27.8564 38.4605 26.3421 36.9533C25.598 36.2113 25.0079 35.3296 24.6058 34.3587C24.2037 33.3878 23.9976 32.347 23.9992 31.2962C23.9992 29.1605 24.8349 27.1533 26.3421 25.639C27.8564 24.1248 29.8635 23.2962 31.9992 23.2962C34.1349 23.2962 36.1421 24.1248 37.6564 25.639C38.4005 26.381 38.9906 27.2628 39.3926 28.2337C39.7947 29.2046 40.0009 30.2453 39.9992 31.2962C39.9992 33.4319 39.1635 35.439 37.6564 36.9533Z" fill="black" fill-opacity="0.85"/>
</g>
<defs>
<clipPath id="clip0_179888_172635">
<rect width="64" height="64" fill="white"/>
</clipPath>
</defs>
</svg>
