<svg width="64" height="64" viewBox="0 0 64 64" fill="none" xmlns="http://www.w3.org/2000/svg">
<path d="M44.5114 13.7982C44.5114 13.4752 44.2472 13.211 43.9243 13.211H15.7424C15.4195 13.211 15.1553 13.4752 15.1553 13.7982V17.3211C15.1553 17.644 15.4195 17.9083 15.7424 17.9083H43.9243C44.2472 17.9083 44.5114 17.644 44.5114 17.3211V13.7982ZM43.9243 23.7798H15.7424C15.4195 23.7798 15.1553 24.044 15.1553 24.367V27.8899C15.1553 28.2128 15.4195 28.4771 15.7424 28.4771H43.9243C44.2472 28.4771 44.5114 28.2128 44.5114 27.8899V24.367C44.5114 24.044 44.2472 23.7798 43.9243 23.7798ZM29.2462 34.3486H15.7424C15.4195 34.3486 15.1553 34.6128 15.1553 34.9358V38.4587C15.1553 38.7817 15.4195 39.0459 15.7424 39.0459H29.2462C29.5691 39.0459 29.8333 38.7817 29.8333 38.4587V34.9358C29.8333 34.6128 29.5691 34.3486 29.2462 34.3486ZM25.7235 56.9541H9.28409V5.2844H50.3826V30.5321C50.3826 30.855 50.6468 31.1193 50.9697 31.1193H55.0796C55.4025 31.1193 55.6667 30.855 55.6667 30.5321V2.34862C55.6667 1.04954 54.6172 0 53.3182 0H6.34849C5.04948 0 4 1.04954 4 2.34862V59.8899C4 61.189 5.04948 62.2385 6.34849 62.2385H25.7235C26.0464 62.2385 26.3106 61.9743 26.3106 61.6514V57.5413C26.3106 57.2183 26.0464 56.9541 25.7235 56.9541ZM51.9091 51.4936C54.0374 49.5633 55.3731 46.7743 55.3731 43.6697C55.3731 37.8349 50.6395 33.1009 44.8049 33.1009C38.9704 33.1009 34.2368 37.8349 34.2368 43.6697C34.2368 46.7743 35.5725 49.5633 37.7008 51.4936C33.5175 53.8789 30.6406 58.2972 30.4205 63.3908C30.4058 63.7211 30.6773 64 31.0076 64H34.5377C34.8459 64 35.1028 63.7578 35.1248 63.4422C35.411 58.3633 39.6456 54.3119 44.8049 54.3119C49.9643 54.3119 54.1989 58.3633 54.4851 63.4422C54.4998 63.7505 54.7566 64 55.0722 64H58.6023C58.9399 64 59.2041 63.7211 59.1894 63.3908C58.9766 58.2899 56.0923 53.8789 51.9091 51.4936ZM44.8049 37.7982C48.0488 37.7982 50.6762 40.4257 50.6762 43.6697C50.6762 46.9138 48.0488 49.5413 44.8049 49.5413C41.5611 49.5413 38.9337 46.9138 38.9337 43.6697C38.9337 40.4257 41.5611 37.7982 44.8049 37.7982Z" fill="black" fill-opacity="0.85"/>
</svg>
